<svg width="46" height="46" viewBox="0 0 46 46" fill="none" xmlns="http://www.w3.org/2000/svg">
<path d="M23 41.7516C23.5011 41.7516 23.9627 41.6941 24.4827 41.6555L25.5998 43.7731C25.8109 44.197 26.2348 44.4278 26.7539 44.3506C27.2353 44.2545 27.5819 43.9078 27.6394 43.3879L27.9861 41.0583C28.9299 40.8086 29.8729 40.4422 30.797 40.0381L32.5302 41.598C32.8958 41.9446 33.3574 42.021 33.8388 41.7516C34.2626 41.5208 34.4359 41.0583 34.3398 40.558L33.8585 38.2482C34.6744 37.6786 35.4408 37.0411 36.1494 36.3425L38.3057 37.246C38.787 37.4391 39.2298 37.343 39.5953 36.9002C39.9231 36.5536 39.9609 36.0533 39.6914 35.6295L38.4404 33.6277C39.0179 32.8185 39.4803 31.9519 39.9231 31.0278L42.2724 31.1437C42.7718 31.1625 43.1956 30.8931 43.369 30.4126C43.5226 29.9304 43.369 29.4688 42.9648 29.1607L41.1355 27.6978C41.386 26.7737 41.5791 25.7723 41.6555 24.7324L43.8889 24.0399C44.3703 23.8666 44.6775 23.5003 44.6775 22.9803C44.6775 22.48 44.3703 22.1145 43.8889 21.9412L41.6546 21.229C41.5783 20.1891 41.386 19.2264 41.1355 18.2834L42.964 16.8007C43.369 16.5124 43.5226 16.0696 43.369 15.5883C43.1956 15.1069 42.7718 14.8367 42.2715 14.8564L39.9223 14.9525C39.4803 14.0284 39.0187 13.1618 38.4404 12.3535L39.6923 10.3517C39.9609 9.94669 39.9223 9.44644 39.5953 9.0998C39.2298 8.65705 38.787 8.54123 38.3057 8.75316L36.1494 9.61976C35.4302 8.93843 34.6644 8.30797 33.8576 7.73294L34.3398 5.44198C34.4359 4.92201 34.2626 4.46037 33.8388 4.22873C33.3574 3.97901 32.8958 4.01762 32.5302 4.40205L30.797 5.92334C29.8836 5.52684 28.9445 5.19231 27.9861 4.92201L27.6394 2.59244C27.5819 2.09137 27.2353 1.72666 26.7539 1.64944C26.234 1.57223 25.8109 1.78416 25.599 2.20801L24.4819 4.32566C23.9627 4.28705 23.5003 4.24844 23 4.24844C22.48 4.24844 22.0184 4.28705 21.4787 4.32566L20.3821 2.20801C20.1702 1.78416 19.7463 1.57223 19.2075 1.64944C18.7261 1.72666 18.3984 2.09219 18.322 2.59244L17.9942 4.90312C17.0361 5.18186 16.0971 5.52265 15.1833 5.92334L13.4509 4.40205C13.0656 4.01762 12.604 3.97901 12.1415 4.22955C11.7185 4.45955 11.5452 4.92201 11.6405 5.44198L12.1227 7.73376C11.3059 8.30318 10.5335 8.93365 9.81197 9.61976L7.67544 8.75316C7.19408 8.54123 6.73161 8.65705 6.36608 9.0998C6.21658 9.26591 6.12611 9.47674 6.10874 9.69955C6.09136 9.92235 6.14804 10.1447 6.26997 10.3319L7.54072 12.3543C6.96326 13.1626 6.50079 14.03 6.05804 14.9533L3.68986 14.8572C3.18879 14.8383 2.76576 15.1077 2.61215 15.5883C2.45772 16.0704 2.59244 16.5132 2.99658 16.8015L4.84479 18.2842C4.59508 19.2272 4.38315 20.1899 4.32565 21.2298L2.09136 21.942C1.59194 22.0956 1.32169 22.462 1.32169 22.9819C1.32169 23.5011 1.59194 23.8674 2.09219 24.0408L4.32565 24.7529C4.38315 25.7732 4.59508 26.7737 4.84561 27.6986L2.9974 29.1607C2.59244 29.4688 2.45772 29.9312 2.61133 30.4118C2.76576 30.8931 3.18961 31.1625 3.68986 31.1437L6.05804 31.0287C6.50161 31.9519 6.96326 32.8194 7.52101 33.6268L6.28886 35.6295C6.00054 36.0533 6.03915 36.5536 6.36608 36.9002C6.73161 37.343 7.19408 37.4391 7.67544 37.2469L9.81197 36.3417C10.525 37.0538 11.3144 37.6888 12.1227 38.2474L11.6413 40.558C11.5452 41.0591 11.7185 41.5208 12.1424 41.7516C12.6229 42.021 13.0854 41.9438 13.4509 41.598L15.1644 40.0381C16.0885 40.4422 17.0315 40.8086 17.9942 41.0583L18.322 43.3879C18.3984 43.9078 18.7261 44.2545 19.2075 44.3506C19.7463 44.4278 20.1702 44.197 20.3821 43.7731L21.4787 41.6555C21.9987 41.6941 22.4809 41.7516 23 41.7516ZM27.8325 21.7679C26.9273 19.3422 25.1563 18.0139 22.9425 18.0139C22.6148 18.0139 22.2303 18.0525 21.6143 18.1864L16.0885 8.75316C18.1487 7.73294 20.4971 7.17437 23 7.17437C31.3942 7.17437 37.9779 13.547 38.5751 21.7679H27.8325ZM7.3674 23C7.3674 17.6476 9.88919 12.9309 13.8748 10.0822L19.4383 19.573C18.3984 20.6515 17.9178 21.8254 17.9178 23.0772C17.9178 24.2897 18.3795 25.4068 19.4383 26.5231L13.74 35.8414C9.85058 32.9722 7.3674 28.3138 7.3674 23ZM20.6318 23.0575C20.6318 21.749 21.749 20.7279 22.9811 20.7279C24.2896 20.7279 25.3682 21.749 25.3682 23.0575C25.3682 24.3472 24.2896 25.4068 22.9811 25.4068C21.749 25.4068 20.6318 24.3472 20.6318 23.0575ZM23 38.8256C20.4396 38.8256 18.0525 38.2285 15.9538 37.1894L21.6134 27.9286C22.2106 28.083 22.6156 28.1208 22.9425 28.1208C25.1751 28.1208 26.947 26.7539 27.8325 24.2708H38.5743C37.9582 32.4522 31.3745 38.8256 23 38.8256Z" fill="white"/>
</svg>
