<svg width="46" height="46" viewBox="0 0 46 46" fill="none" xmlns="http://www.w3.org/2000/svg">
<path d="M30.245 19.2245C30.3862 19.0929 30.4995 18.9342 30.5781 18.7579C30.6566 18.5816 30.6989 18.3912 30.7023 18.1982C30.7057 18.0052 30.6702 17.8135 30.5979 17.6345C30.5256 17.4555 30.418 17.2929 30.2815 17.1564C30.145 17.0199 29.9824 16.9123 29.8034 16.84C29.6244 16.7677 29.4327 16.7322 29.2397 16.7356C29.0466 16.739 28.8563 16.7812 28.68 16.8598C28.5036 16.9384 28.3449 17.0516 28.2133 17.1929L21.5625 23.8437L18.745 21.0262C18.4725 20.7723 18.1121 20.6341 17.7397 20.6406C17.3672 20.6472 17.0119 20.7981 16.7486 21.0614C16.4852 21.3248 16.3343 21.6801 16.3277 22.0525C16.3212 22.425 16.4594 22.7854 16.7133 23.0579L21.5625 27.907L30.245 19.2245Z" fill="white"/>
<path d="M24.9933 2.99032C23.6972 2.55205 22.2928 2.55273 20.9971 2.99223L8.00975 7.39098C7.05493 7.70897 6.21404 8.29944 5.59078 9.08959C4.96751 9.87975 4.58912 10.835 4.50225 11.8377C3.82567 20.2901 4.96225 26.9333 8.02508 32.1409C11.0975 37.3638 15.9965 40.9537 22.4672 43.5048C22.8059 43.6383 23.1826 43.6383 23.5213 43.5048C29.9978 40.9537 34.8987 37.3638 37.973 32.1409C41.0397 26.9333 42.1743 20.2882 41.4997 11.8396C41.4127 10.8367 41.034 9.88127 40.4104 9.09109C39.7867 8.30092 38.9454 7.71058 37.9902 7.3929L24.9933 2.99032ZM21.919 5.71582C22.6164 5.47979 23.3721 5.47979 24.0695 5.71582L37.0683 10.1146C37.9538 10.4136 38.5633 11.1898 38.6343 12.0677C39.2802 20.1675 38.1589 26.1571 35.4948 30.6823C32.9188 35.0619 28.7941 38.2455 22.9943 40.6183C17.2002 38.2455 13.0793 35.0619 10.5033 30.6823C7.83917 26.159 6.71983 20.1675 7.36575 12.0677C7.40755 11.6245 7.57808 11.2033 7.85632 10.856C8.13457 10.5086 8.50837 10.2502 8.93167 10.1127L21.919 5.71582Z" fill="white"/>
</svg>
