<svg width="46" height="46" viewBox="0 0 46 46" fill="none" xmlns="http://www.w3.org/2000/svg">
<path d="M11.5 9.58301H16.2917C16.2917 8.05801 16.8975 6.59548 17.9758 5.51714C19.0541 4.43881 20.5167 3.83301 22.0417 3.83301C23.5667 3.83301 25.0292 4.43881 26.1075 5.51714C27.1859 6.59548 27.7917 8.05801 27.7917 9.58301H32.5833C34.1083 9.58301 35.5709 10.1888 36.6492 11.2671C37.7275 12.3455 38.3333 13.808 38.3333 15.333V36.4163C38.3333 37.9413 37.7275 39.4039 36.6492 40.4822C35.5709 41.5605 34.1083 42.1663 32.5833 42.1663H11.5C9.97501 42.1663 8.51247 41.5605 7.43414 40.4822C6.3558 39.4039 5.75 37.9413 5.75 36.4163V15.333C5.75 13.808 6.3558 12.3455 7.43414 11.2671C8.51247 10.1888 9.97501 9.58301 11.5 9.58301ZM11.5 11.4997C10.4833 11.4997 9.50831 11.9035 8.78942 12.6224C8.07053 13.3413 7.66667 14.3163 7.66667 15.333V36.4163C7.66667 37.433 8.07053 38.408 8.78942 39.1269C9.50831 39.8458 10.4833 40.2497 11.5 40.2497H32.5833C33.6 40.2497 34.575 39.8458 35.2939 39.1269C36.0128 38.408 36.4167 37.433 36.4167 36.4163V15.333C36.4167 14.3163 36.0128 13.3413 35.2939 12.6224C34.575 11.9035 33.6 11.4997 32.5833 11.4997H30.6667V17.2497H13.4167V11.4997H11.5ZM15.3333 15.333H28.75V11.4997H15.3333V15.333ZM22.0417 5.74967C21.025 5.74967 20.05 6.15354 19.3311 6.87243C18.6122 7.59132 18.2083 8.56634 18.2083 9.58301H25.875C25.875 8.56634 25.4711 7.59132 24.7522 6.87243C24.0334 6.15354 23.0583 5.74967 22.0417 5.74967Z" fill="white"/>
</svg>
