<svg width="241" height="29" viewBox="0 0 241 29" fill="none" xmlns="http://www.w3.org/2000/svg">
<path d="M19.6802 28.4004V0.400389H24.8802V28.4004H19.6802ZM0.000234544 28.4004V0.400389H5.20023V28.4004H0.000234544ZM4.76023 16.4004V11.9604H20.0802V16.4004H4.76023ZM44.423 28.8004C40.583 28.8004 37.5697 27.7204 35.383 25.5604C33.223 23.4004 32.143 20.2804 32.143 16.2004V0.400389H37.343V16.0004C37.343 18.8804 37.9564 20.9737 39.183 22.2804C40.4364 23.5871 42.1964 24.2404 44.463 24.2404C46.7297 24.2404 48.4764 23.5871 49.703 22.2804C50.9297 20.9737 51.543 18.8804 51.543 16.0004V0.400389H56.663V16.2004C56.663 20.2804 55.5697 23.4004 53.383 25.5604C51.223 27.7204 48.2364 28.8004 44.423 28.8004ZM63.9455 28.4004V0.400389H77.0655C80.4255 0.400389 82.9855 1.06706 84.7455 2.40039C86.5055 3.70706 87.3855 5.46706 87.3855 7.68039C87.3855 9.17372 87.0389 10.4537 86.3455 11.5204C85.6522 12.5604 84.7189 13.3737 83.5455 13.9604C82.3989 14.5204 81.1455 14.8004 79.7855 14.8004L80.5055 13.3604C82.0789 13.3604 83.4922 13.6537 84.7455 14.2404C85.9989 14.8004 86.9855 15.6271 87.7055 16.7204C88.4522 17.8137 88.8255 19.1737 88.8255 20.8004C88.8255 23.2004 87.9055 25.0671 86.0655 26.4004C84.2255 27.7337 81.4922 28.4004 77.8655 28.4004H63.9455ZM69.1455 24.3204H77.5455C79.4922 24.3204 80.9855 24.0004 82.0255 23.3604C83.0655 22.7204 83.5855 21.6937 83.5855 20.2804C83.5855 18.8937 83.0655 17.8804 82.0255 17.2404C80.9855 16.5737 79.4922 16.2404 77.5455 16.2404H68.7455V12.2004H76.5055C78.3189 12.2004 79.7055 11.8804 80.6655 11.2404C81.6522 10.6004 82.1455 9.64039 82.1455 8.36039C82.1455 7.05372 81.6522 6.08039 80.6655 5.44039C79.7055 4.80039 78.3189 4.48039 76.5055 4.48039H69.1455V24.3204ZM117.47 28.8004C113.63 28.8004 110.617 27.7204 108.43 25.5604C106.27 23.4004 105.19 20.2804 105.19 16.2004V0.400389H110.39V16.0004C110.39 18.8804 111.003 20.9737 112.23 22.2804C113.483 23.5871 115.243 24.2404 117.51 24.2404C119.777 24.2404 121.523 23.5871 122.75 22.2804C123.977 20.9737 124.59 18.8804 124.59 16.0004V0.400389H129.71V16.2004C129.71 20.2804 128.617 23.4004 126.43 25.5604C124.27 27.7204 121.283 28.8004 117.47 28.8004ZM136.992 28.4004V0.400389H141.272L158.832 21.9604H156.712V0.400389H161.872V28.4004H157.592L140.032 6.84039H142.152V28.4004H136.992ZM169.375 28.4004V0.400389H174.575V28.4004H169.375ZM195.269 28.8004C193.082 28.8004 191.069 28.4404 189.229 27.7204C187.389 27.0004 185.789 26.0004 184.429 24.7204C183.069 23.4137 182.015 21.8937 181.269 20.1604C180.522 18.4004 180.149 16.4804 180.149 14.4004C180.149 12.3204 180.522 10.4137 181.269 8.68039C182.015 6.92039 183.069 5.40039 184.429 4.12039C185.789 2.81372 187.389 1.80039 189.229 1.08039C191.069 0.360389 193.069 0.000389099 195.229 0.000389099C197.415 0.000389099 199.415 0.360389 201.229 1.08039C203.069 1.80039 204.669 2.81372 206.029 4.12039C207.389 5.40039 208.442 6.92039 209.189 8.68039C209.935 10.4137 210.309 12.3204 210.309 14.4004C210.309 16.4804 209.935 18.4004 209.189 20.1604C208.442 21.9204 207.389 23.4404 206.029 24.7204C204.669 26.0004 203.069 27.0004 201.229 27.7204C199.415 28.4404 197.429 28.8004 195.269 28.8004ZM195.229 24.2404C196.642 24.2404 197.949 24.0004 199.149 23.5204C200.349 23.0404 201.389 22.3604 202.269 21.4804C203.149 20.5737 203.829 19.5337 204.309 18.3604C204.815 17.1604 205.069 15.8404 205.069 14.4004C205.069 12.9604 204.815 11.6537 204.309 10.4804C203.829 9.28039 203.149 8.24039 202.269 7.36039C201.389 6.45372 200.349 5.76039 199.149 5.28039C197.949 4.80039 196.642 4.56039 195.229 4.56039C193.815 4.56039 192.509 4.80039 191.309 5.28039C190.135 5.76039 189.095 6.45372 188.189 7.36039C187.309 8.24039 186.615 9.28039 186.109 10.4804C185.629 11.6537 185.389 12.9604 185.389 14.4004C185.389 15.8137 185.629 17.1204 186.109 18.3204C186.615 19.5204 187.309 20.5737 188.189 21.4804C189.069 22.3604 190.109 23.0404 191.309 23.5204C192.509 24.0004 193.815 24.2404 195.229 24.2404ZM215.821 28.4004V0.400389H220.101L237.661 21.9604H235.541V0.400389H240.701V28.4004H236.421L218.861 6.84039H220.981V28.4004H215.821Z" fill="white"/>
</svg>
