<svg width="145" height="18" viewBox="0 0 145 18" fill="none" xmlns="http://www.w3.org/2000/svg">
<path d="M11.8081 17.04V0.240038H14.9281V17.04H11.8081ZM0.000140727 17.04V0.240038H3.12014V17.04H0.000140727ZM2.85614 9.84004V7.17604H12.0481V9.84004H2.85614ZM26.6538 17.28C24.3498 17.28 22.5418 16.632 21.2298 15.336C19.9338 14.04 19.2858 12.168 19.2858 9.72004V0.240038H22.4058V9.60004C22.4058 11.328 22.7738 12.584 23.5098 13.368C24.2618 14.152 25.3178 14.544 26.6778 14.544C28.0378 14.544 29.0858 14.152 29.8218 13.368C30.5578 12.584 30.9258 11.328 30.9258 9.60004V0.240038H33.9978V9.72004C33.9978 12.168 33.3418 14.04 32.0298 15.336C30.7338 16.632 28.9418 17.28 26.6538 17.28ZM38.3673 17.04V0.240038H46.2393C48.2553 0.240038 49.7913 0.640038 50.8473 1.44004C51.9033 2.22404 52.4313 3.28004 52.4313 4.60804C52.4313 5.50404 52.2233 6.27204 51.8073 6.91204C51.3913 7.53604 50.8313 8.02404 50.1273 8.37604C49.4393 8.71204 48.6873 8.88004 47.8713 8.88004L48.3033 8.01604C49.2473 8.01604 50.0953 8.19204 50.8473 8.54404C51.5993 8.88004 52.1913 9.37604 52.6233 10.032C53.0713 10.688 53.2953 11.504 53.2953 12.48C53.2953 13.92 52.7433 15.04 51.6393 15.84C50.5353 16.64 48.8953 17.04 46.7193 17.04H38.3673ZM41.4873 14.592H46.5273C47.6953 14.592 48.5913 14.4 49.2153 14.016C49.8393 13.632 50.1513 13.016 50.1513 12.168C50.1513 11.336 49.8393 10.728 49.2153 10.344C48.5913 9.94404 47.6953 9.74404 46.5273 9.74404H41.2473V7.32004H45.9033C46.9913 7.32004 47.8233 7.12804 48.3993 6.74404C48.9913 6.36004 49.2873 5.78404 49.2873 5.01604C49.2873 4.23204 48.9913 3.64804 48.3993 3.26404C47.8233 2.88004 46.9913 2.68804 45.9033 2.68804H41.4873V14.592ZM70.482 17.28C68.178 17.28 66.37 16.632 65.058 15.336C63.762 14.04 63.114 12.168 63.114 9.72004V0.240038H66.234V9.60004C66.234 11.328 66.602 12.584 67.338 13.368C68.09 14.152 69.146 14.544 70.506 14.544C71.866 14.544 72.914 14.152 73.65 13.368C74.386 12.584 74.754 11.328 74.754 9.60004V0.240038H77.826V9.72004C77.826 12.168 77.17 14.04 75.858 15.336C74.562 16.632 72.77 17.28 70.482 17.28ZM82.1955 17.04V0.240038H84.7635L95.2995 13.176H94.0275V0.240038H97.1235V17.04H94.5555L84.0195 4.10404H85.2915V17.04H82.1955ZM101.625 17.04V0.240038H104.745V17.04H101.625ZM117.161 17.28C115.849 17.28 114.641 17.064 113.537 16.632C112.433 16.2 111.473 15.6 110.657 14.832C109.841 14.048 109.209 13.136 108.761 12.096C108.313 11.04 108.089 9.88804 108.089 8.64004C108.089 7.39204 108.313 6.24804 108.761 5.20804C109.209 4.15204 109.841 3.24004 110.657 2.47204C111.473 1.68804 112.433 1.08004 113.537 0.648038C114.641 0.216038 115.841 3.8147e-05 117.137 3.8147e-05C118.449 3.8147e-05 119.649 0.216038 120.737 0.648038C121.841 1.08004 122.801 1.68804 123.617 2.47204C124.433 3.24004 125.065 4.15204 125.513 5.20804C125.961 6.24804 126.185 7.39204 126.185 8.64004C126.185 9.88804 125.961 11.04 125.513 12.096C125.065 13.152 124.433 14.064 123.617 14.832C122.801 15.6 121.841 16.2 120.737 16.632C119.649 17.064 118.457 17.28 117.161 17.28ZM117.137 14.544C117.985 14.544 118.769 14.4 119.489 14.112C120.209 13.824 120.833 13.416 121.361 12.888C121.889 12.344 122.297 11.72 122.585 11.016C122.889 10.296 123.041 9.50404 123.041 8.64004C123.041 7.77604 122.889 6.99204 122.585 6.28804C122.297 5.56804 121.889 4.94404 121.361 4.41604C120.833 3.87204 120.209 3.45604 119.489 3.16804C118.769 2.88004 117.985 2.73604 117.137 2.73604C116.289 2.73604 115.505 2.88004 114.785 3.16804C114.081 3.45604 113.457 3.87204 112.913 4.41604C112.385 4.94404 111.969 5.56804 111.665 6.28804C111.377 6.99204 111.233 7.77604 111.233 8.64004C111.233 9.48804 111.377 10.272 111.665 10.992C111.969 11.712 112.385 12.344 112.913 12.888C113.441 13.416 114.065 13.824 114.785 14.112C115.505 14.4 116.289 14.544 117.137 14.544ZM129.492 17.04V0.240038H132.06L142.596 13.176H141.324V0.240038H144.42V17.04H141.852L131.316 4.10404H132.588V17.04H129.492Z" fill="white"/>
</svg>
