<svg width="145" height="18" viewBox="0 0 145 18" fill="none" xmlns="http://www.w3.org/2000/svg">
<path d="M11.8079 17.04V0.240038H14.9279V17.04H11.8079ZM-0.000103414 17.04V0.240038H3.1199V17.04H-0.000103414ZM2.8559 9.84004V7.17604H12.0479V9.84004H2.8559ZM26.6536 17.28C24.3496 17.28 22.5416 16.632 21.2296 15.336C19.9336 14.04 19.2856 12.168 19.2856 9.72004V0.240038H22.4056V9.60004C22.4056 11.328 22.7736 12.584 23.5096 13.368C24.2616 14.152 25.3176 14.544 26.6776 14.544C28.0376 14.544 29.0856 14.152 29.8216 13.368C30.5576 12.584 30.9256 11.328 30.9256 9.60004V0.240038H33.9976V9.72004C33.9976 12.168 33.3416 14.04 32.0296 15.336C30.7336 16.632 28.9416 17.28 26.6536 17.28ZM38.3671 17.04V0.240038H46.2391C48.2551 0.240038 49.7911 0.640038 50.8471 1.44004C51.9031 2.22404 52.4311 3.28004 52.4311 4.60804C52.4311 5.50404 52.2231 6.27204 51.8071 6.91204C51.3911 7.53604 50.8311 8.02404 50.1271 8.37604C49.4391 8.71204 48.6871 8.88004 47.8711 8.88004L48.3031 8.01604C49.2471 8.01604 50.0951 8.19204 50.8471 8.54404C51.5991 8.88004 52.1911 9.37604 52.6231 10.032C53.0711 10.688 53.2951 11.504 53.2951 12.48C53.2951 13.92 52.7431 15.04 51.6391 15.84C50.5351 16.64 48.8951 17.04 46.7191 17.04H38.3671ZM41.4871 14.592H46.5271C47.6951 14.592 48.5911 14.4 49.2151 14.016C49.8391 13.632 50.1511 13.016 50.1511 12.168C50.1511 11.336 49.8391 10.728 49.2151 10.344C48.5911 9.94404 47.6951 9.74404 46.5271 9.74404H41.2471V7.32004H45.9031C46.9911 7.32004 47.8231 7.12804 48.3991 6.74404C48.9911 6.36004 49.2871 5.78404 49.2871 5.01604C49.2871 4.23204 48.9911 3.64804 48.3991 3.26404C47.8231 2.88004 46.9911 2.68804 45.9031 2.68804H41.4871V14.592ZM70.4817 17.28C68.1777 17.28 66.3697 16.632 65.0577 15.336C63.7617 14.04 63.1137 12.168 63.1137 9.72004V0.240038H66.2337V9.60004C66.2337 11.328 66.6017 12.584 67.3377 13.368C68.0897 14.152 69.1457 14.544 70.5057 14.544C71.8657 14.544 72.9137 14.152 73.6497 13.368C74.3857 12.584 74.7537 11.328 74.7537 9.60004V0.240038H77.8257V9.72004C77.8257 12.168 77.1697 14.04 75.8577 15.336C74.5617 16.632 72.7697 17.28 70.4817 17.28ZM82.1952 17.04V0.240038H84.7632L95.2992 13.176H94.0272V0.240038H97.1232V17.04H94.5552L84.0192 4.10404H85.2912V17.04H82.1952ZM101.625 17.04V0.240038H104.745V17.04H101.625ZM117.161 17.28C115.849 17.28 114.641 17.064 113.537 16.632C112.433 16.2 111.473 15.6 110.657 14.832C109.841 14.048 109.209 13.136 108.761 12.096C108.313 11.04 108.089 9.88804 108.089 8.64004C108.089 7.39204 108.313 6.24804 108.761 5.20804C109.209 4.15204 109.841 3.24004 110.657 2.47204C111.473 1.68804 112.433 1.08004 113.537 0.648038C114.641 0.216038 115.841 3.8147e-05 117.137 3.8147e-05C118.449 3.8147e-05 119.649 0.216038 120.737 0.648038C121.841 1.08004 122.801 1.68804 123.617 2.47204C124.433 3.24004 125.065 4.15204 125.513 5.20804C125.961 6.24804 126.185 7.39204 126.185 8.64004C126.185 9.88804 125.961 11.04 125.513 12.096C125.065 13.152 124.433 14.064 123.617 14.832C122.801 15.6 121.841 16.2 120.737 16.632C119.649 17.064 118.457 17.28 117.161 17.28ZM117.137 14.544C117.985 14.544 118.769 14.4 119.489 14.112C120.209 13.824 120.833 13.416 121.361 12.888C121.889 12.344 122.297 11.72 122.585 11.016C122.889 10.296 123.041 9.50404 123.041 8.64004C123.041 7.77604 122.889 6.99204 122.585 6.28804C122.297 5.56804 121.889 4.94404 121.361 4.41604C120.833 3.87204 120.209 3.45604 119.489 3.16804C118.769 2.88004 117.985 2.73604 117.137 2.73604C116.289 2.73604 115.505 2.88004 114.785 3.16804C114.081 3.45604 113.457 3.87204 112.913 4.41604C112.385 4.94404 111.969 5.56804 111.665 6.28804C111.377 6.99204 111.233 7.77604 111.233 8.64004C111.233 9.48804 111.377 10.272 111.665 10.992C111.969 11.712 112.385 12.344 112.913 12.888C113.441 13.416 114.065 13.824 114.785 14.112C115.505 14.4 116.289 14.544 117.137 14.544ZM129.492 17.04V0.240038H132.06L142.596 13.176H141.324V0.240038H144.42V17.04H141.852L131.316 4.10404H132.588V17.04H129.492Z" fill="#010142"/>
</svg>
