<svg width="205" height="200" viewBox="0 0 205 200" fill="none" xmlns="http://www.w3.org/2000/svg">
<circle cx="100" cy="100" r="100" fill="white"/>
<circle cx="100" cy="100" r="99" stroke="black" stroke-opacity="0.2" stroke-width="2"/>
<path d="M198.5 96.5C202.5 142 159.5 213.5 75.5 195.5" stroke="#050D69" stroke-width="2"/>
<circle cx="199" cy="95" r="6" fill="#050D69"/>
<circle cx="70" cy="194" r="6" fill="#050D69"/>
<path d="M137.745 76.2199C137.356 76.025 136.923 75.9361 136.489 75.9621C136.055 75.9882 135.636 76.1283 135.273 76.3682L111.861 92.0421V78.4202C111.862 77.95 111.728 77.4893 111.477 77.0923C111.225 76.6952 110.865 76.3781 110.439 76.1783C110.014 75.9785 109.54 75.9042 109.074 75.9641C108.607 76.024 108.168 76.2156 107.807 76.5165L88.3254 92.6107H79.7221V69.4213C79.7361 68.8498 79.5516 68.2911 79.2 67.8404C78.8484 67.3896 78.3515 67.0746 77.7938 66.949L67.9049 64.724C67.54 64.6422 67.1614 64.6441 66.7974 64.7298C66.4334 64.8154 66.0936 64.9825 65.8035 65.2185C65.5067 65.4589 65.2696 65.7649 65.1109 66.1123C64.9522 66.4597 64.8762 66.8392 64.8888 67.221V92.6107H62.4166C61.7609 92.6107 61.1321 92.8712 60.6684 93.3348C60.2048 93.7984 59.9443 94.4273 59.9443 95.0829V134.638C59.9443 135.294 60.2048 135.923 60.6684 136.387C61.1321 136.85 61.7609 137.111 62.4166 137.111H136.583C137.239 137.111 137.868 136.85 138.331 136.387C138.795 135.923 139.055 135.294 139.055 134.638V78.4202C139.059 77.9687 138.938 77.525 138.707 77.1371C138.476 76.7493 138.144 76.432 137.745 76.2199ZM69.8332 70.3607L74.7777 71.4485V92.6107H69.8332V70.3607ZM134.111 132.166H64.8888V97.5552H89.1907C89.7684 97.5563 90.3282 97.3551 90.7729 96.9865L106.917 83.6365V96.6899C106.916 97.139 107.038 97.5798 107.269 97.965C107.5 98.3502 107.831 98.6652 108.228 98.8761C108.624 99.0871 109.071 99.1861 109.519 99.1624C109.968 99.1387 110.401 98.9933 110.773 98.7418L134.111 83.0679V132.166Z" fill="#050D69"/>
<path d="M69.833 102.476H89.6108V107.42H69.833V102.476ZM69.833 112.364H89.6108V117.309H69.833V112.364ZM69.833 122.253H89.6108V127.198H69.833V122.253ZM101.972 104.948H106.916V112.364H101.972V104.948ZM101.972 119.781H106.916V127.198H101.972V119.781ZM111.861 104.948H116.805V112.364H111.861V104.948ZM111.861 119.781H116.805V127.198H111.861V119.781ZM121.75 104.948H126.694V112.364H121.75V104.948ZM121.75 119.781H126.694V127.198H121.75V119.781Z" fill="#050D69"/>
</svg>
