<svg width="205" height="200" viewBox="0 0 205 200" fill="none" xmlns="http://www.w3.org/2000/svg">
<circle cx="100" cy="100" r="100" fill="white"/>
<circle cx="100" cy="100" r="99" stroke="black" stroke-opacity="0.2" stroke-width="2"/>
<path d="M198.5 96.5C202.5 142 159.5 213.5 75.5 195.5" stroke="#050D69" stroke-width="2"/>
<circle cx="199" cy="95" r="6" fill="#050D69"/>
<circle cx="70" cy="194" r="6" fill="#050D69"/>
<path d="M118.131 52.4102C118.131 52.4102 120.968 57.1357 120.203 59.4673C119.519 61.5554 115.476 61.3382 114.973 63.4786C114.59 65.1785 116.421 67.8018 117.487 69.1436H118.855C120.284 66.8885 121.39 64.7621 121.672 62.1147C123.261 63.7764 123.764 66.3976 121.893 69.1436H123.583C125.192 67.2245 128.451 62.9274 127.848 60.1533C126.983 56.1037 118.131 52.4102 118.131 52.4102ZM71.9219 58.2743C68.4014 58.2743 65.9994 59.2681 64.7823 61.0927C63.5652 62.9174 63.6738 64.913 63.6738 66.5224V68.9425H67.2949V66.5224C67.2949 64.913 67.4036 63.6899 67.7958 63.1004C68.1881 62.511 69.0049 61.8954 71.9219 61.8954H84.7969C86.8086 61.8954 89.4238 64.402 89.4238 66.8422V91.3932H93.0449V85.6397H113.826L114.148 82.0186H93.0449V66.8422C93.0449 62.2052 89.2227 58.2743 84.7969 58.2743H71.9219ZM62.2656 72.3624V75.9835H68.7031V72.3624H62.2656ZM118.634 72.7647L115.757 104.55H124.649L121.772 72.7647H118.634ZM65.4844 79.2022C63.4727 79.2022 61.4851 79.8862 60.0487 81.1536C58.6103 82.4411 57.6387 84.2718 57.6387 87.0479V146.595H73.3301V87.0479C73.3301 84.2919 72.3645 82.4411 70.916 81.1536C69.4837 79.8862 67.4961 79.2022 65.4844 79.2022ZM127.425 94.8936L127.747 98.5147H133.078C135.995 98.5147 137.846 99.2188 139.033 100.406C140.22 101.613 140.924 103.524 140.924 106.521V114.548C141.487 114.327 142.091 114.206 142.734 114.206C143.378 114.206 143.982 114.327 144.545 114.548V106.521C144.545 102.92 143.64 99.9229 141.608 97.871C139.576 95.7989 136.599 94.8936 133.078 94.8936H127.425ZM86.6074 95.296V98.1124H95.8613V95.296H86.6074ZM91.335 101.733C85.3602 101.733 80.1096 104.691 76.9512 109.237V112.597H105.518V108.956C102.339 104.59 97.1891 101.733 91.335 101.733ZM109.139 108.171V130.3H131.268V108.171H109.139ZM76.9512 116.218V119.034H105.518V116.218H76.9512ZM142.734 117.827C141.93 117.827 141.326 118.431 141.326 119.235C141.326 120.04 141.93 120.644 142.734 120.644C143.539 120.644 144.143 120.04 144.143 119.235C144.143 118.431 143.539 117.827 142.734 117.827ZM76.9512 122.655V129.214C78.2789 131.125 79.9688 132.754 81.9201 134.001L77.3535 143.175V146.595H84.8975V143.175H81.3971L85.1791 135.631C87.0902 136.335 89.1623 136.737 91.335 136.737C93.5076 136.737 95.5797 136.335 97.4908 135.631L101.273 143.175H97.7725V146.595H110.647V143.175H105.337L100.75 134.001C102.601 132.815 104.23 131.286 105.518 129.515V122.655H76.9512ZM140.924 123.923V130.3H144.545V123.923C143.982 124.144 143.378 124.265 142.734 124.265C142.091 124.265 141.487 124.144 140.924 123.923ZM117.528 133.921L127.506 146.595H135.754L125.776 133.921H117.528ZM130.403 133.921L140.381 146.595H147.361V144.804L138.651 133.921H130.403ZM143.278 133.921L147.361 139.031V133.921H143.278ZM115.576 137.26V146.595H122.879L115.576 137.26Z" fill="#050D69"/>
</svg>
