<svg width="205" height="200" viewBox="0 0 205 200" fill="none" xmlns="http://www.w3.org/2000/svg">
<circle cx="100" cy="100" r="100" fill="white"/>
<circle cx="100" cy="100" r="99" stroke="black" stroke-opacity="0.2" stroke-width="2"/>
<path d="M198.5 96.5C202.5 142 159.5 213.5 75.5 195.5" stroke="#050D69" stroke-width="2"/>
<circle cx="199" cy="95" r="6" fill="#050D69"/>
<circle cx="70" cy="194" r="6" fill="#050D69"/>
<path d="M105.576 56.7959C102.599 66.3214 104.912 77.3665 112.166 84.4775V84.4785C113.93 86.2153 115.842 87.6581 117.671 89.0088C119.52 90.3743 121.267 91.6346 122.903 93.0967C124.294 94.4848 125.573 95.6769 126.641 97.0654C126.661 97.0942 126.689 97.1348 126.724 97.1855C126.802 97.2993 126.916 97.4656 127.057 97.6729C127.339 98.0883 127.725 98.6662 128.145 99.3154C129.004 100.646 129.926 102.165 130.401 103.207L130.433 103.271L131.068 104.545C135.555 115.504 132.479 128.321 123.647 136.335C115.748 143.463 104.577 145.452 93.877 144.103L93.873 144.102L92.96 143.974C83.5607 142.51 74.8318 136.596 69.7168 128.424C68.233 125.796 66.9414 122.895 66.2793 120.058L66.2568 119.961L66.2246 119.868L66.0801 119.426C65.3936 117.235 65.117 115.013 64.8262 112.591C64.3634 104.66 66.7447 96.3996 71.3398 89.9893C70.4461 97.0677 72.2033 104.489 76.6709 110.214C76.9622 110.701 77.3326 111.136 77.7676 111.501V111.502C79.199 112.707 81.2341 113.308 83.2637 112.426L83.2627 112.424C84.9526 111.723 86.2742 110.021 86.2744 108.009C86.2744 106.922 85.928 106.086 85.7256 105.581H85.7266C79.7412 90.1269 84.7525 72.0852 97.4609 61.8789L97.4619 61.8799C99.9383 59.8918 102.641 58.081 105.576 56.7959ZM99.7207 93.7949C98.1619 97.7787 98.07 101.413 98.7305 105.486V105.487L98.7324 105.5C98.914 106.576 99.1599 107.598 99.3975 108.549C99.6404 109.521 99.8676 110.394 100.051 111.276C100.409 113.001 100.551 114.574 100.198 116.253C99.266 120.166 96.132 124.076 90.791 125.333L87.2969 126.155L89.835 128.694C93.5175 132.377 100.062 135.815 106.855 133.417C109.016 132.797 111.601 131.322 113.218 129.936L113.243 129.913L113.268 129.891C116.802 126.65 118.873 121.462 118.722 116.688C118.722 115.762 118.599 114.886 118.36 114.018C117.562 109.947 115.331 107.284 112.981 105.078C111.87 104.034 110.533 102.917 109.474 101.965C108.344 100.948 107.309 99.9314 106.423 98.7803L106.411 98.7646L106.399 98.751L106.196 98.4902C105.189 97.1628 104.297 95.4783 103.372 93.6289L101.359 89.6055L99.7207 93.7949Z" stroke="#050D69" stroke-width="4"/>
</svg>
