<svg width="205" height="200" viewBox="0 0 205 200" fill="none" xmlns="http://www.w3.org/2000/svg">
<circle cx="100" cy="100" r="100" fill="white"/>
<circle cx="100" cy="100" r="99" stroke="black" stroke-opacity="0.2" stroke-width="2"/>
<path d="M198.5 96.5C202.5 142 159.5 213.5 75.5 195.5" stroke="#050D69" stroke-width="2"/>
<circle cx="199" cy="95" r="6" fill="#050D69"/>
<circle cx="70" cy="194" r="6" fill="#050D69"/>
<path fill-rule="evenodd" clip-rule="evenodd" d="M66.584 68C66.584 65.9446 67.4005 63.9733 68.8539 62.5199C70.3073 61.0665 72.2786 60.25 74.334 60.25C76.3894 60.25 78.3607 61.0665 79.8141 62.5199C81.2675 63.9733 82.084 65.9446 82.084 68V91.25H107.917V68C107.917 65.9446 108.734 63.9733 110.187 62.5199C111.641 61.0665 113.612 60.25 115.667 60.25C117.723 60.25 119.694 61.0665 121.147 62.5199C122.601 63.9733 123.417 65.9446 123.417 68V130C123.417 132.055 122.601 134.027 121.147 135.48C119.694 136.933 117.723 137.75 115.667 137.75C113.612 137.75 111.641 136.933 110.187 135.48C108.734 134.027 107.917 132.055 107.917 130V106.75H82.084V130C82.084 132.055 81.2675 134.027 79.8141 135.48C78.3607 136.933 76.3894 137.75 74.334 137.75C72.2786 137.75 70.3073 136.933 68.8539 135.48C67.4005 134.027 66.584 132.055 66.584 130V68ZM74.334 65.4167C73.6488 65.4167 72.9918 65.6888 72.5073 66.1733C72.0228 66.6578 71.7507 67.3149 71.7507 68V130C71.7507 130.685 72.0228 131.342 72.5073 131.827C72.9918 132.311 73.6488 132.583 74.334 132.583C75.0191 132.583 75.6762 132.311 76.1607 131.827C76.6451 131.342 76.9173 130.685 76.9173 130V101.583H113.084V130C113.084 130.685 113.356 131.342 113.841 131.827C114.325 132.311 114.982 132.583 115.667 132.583C116.352 132.583 117.01 132.311 117.494 131.827C117.978 131.342 118.251 130.685 118.251 130V68C118.251 67.3149 117.978 66.6578 117.494 66.1733C117.01 65.6888 116.352 65.4167 115.667 65.4167C114.982 65.4167 114.325 65.6888 113.841 66.1733C113.356 66.6578 113.084 67.3149 113.084 68V96.4167H76.9173V68C76.9173 67.3149 76.6451 66.6578 76.1607 66.1733C75.6762 65.6888 75.0191 65.4167 74.334 65.4167Z" fill="#050D69"/>
<path d="M129.858 138V135.27L136.878 128.64C137.433 128.137 137.84 127.687 138.1 127.288C138.36 126.889 138.533 126.525 138.62 126.196C138.724 125.867 138.776 125.563 138.776 125.286C138.776 124.558 138.525 124.003 138.022 123.622C137.537 123.223 136.817 123.024 135.864 123.024C135.101 123.024 134.391 123.171 133.732 123.466C133.091 123.761 132.545 124.22 132.094 124.844L129.026 122.868C129.719 121.828 130.69 121.005 131.938 120.398C133.186 119.791 134.625 119.488 136.254 119.488C137.606 119.488 138.785 119.713 139.79 120.164C140.813 120.597 141.601 121.213 142.156 122.01C142.728 122.807 143.014 123.761 143.014 124.87C143.014 125.459 142.936 126.049 142.78 126.638C142.641 127.21 142.347 127.817 141.896 128.458C141.463 129.099 140.821 129.819 139.972 130.616L134.148 136.102L133.342 134.568H143.612V138H129.858Z" fill="#050D69"/>
</svg>
