<svg width="205" height="200" viewBox="0 0 205 200" fill="none" xmlns="http://www.w3.org/2000/svg">
<circle cx="100" cy="100" r="100" fill="white"/>
<circle cx="100" cy="100" r="99" stroke="black" stroke-opacity="0.2" stroke-width="2"/>
<path d="M198.5 96.5C202.5 142 159.5 213.5 75.5 195.5" stroke="#050D69" stroke-width="2"/>
<circle cx="199" cy="95" r="6" fill="#050D69"/>
<circle cx="70" cy="194" r="6" fill="#050D69"/>
<path d="M106.169 58.4468L99.8454 96.661L122.752 96.7496L91.5718 148.555L97.895 106.513L74.9895 106.421L106.169 58.4468ZM106.173 52.0002C106.021 52.0002 105.87 52.0065 105.722 52.0193C104.733 52.1113 104.077 52.4917 103.299 53.0928C102.861 53.4286 102.467 53.8333 102.126 54.2951C102.024 54.4337 101.928 54.5779 101.838 54.727L70.4345 102.534C69.1945 104.489 69.0123 107.069 69.9651 109.226C70.9164 111.382 72.8402 112.749 74.9489 112.766L91.1262 112.902L86.0401 147.37C85.5567 150.333 86.9298 153.285 89.3468 154.475C90.0492 154.822 90.8058 155.001 91.5703 155C93.3315 155 94.7788 154.052 95.8648 152.341L127.307 100.535C128.547 98.5803 128.728 95.9968 127.777 93.8436C126.825 91.6872 124.902 90.3204 122.793 90.3028L106.616 90.2706L111.647 59.9632C111.754 59.467 111.807 58.9578 111.807 58.4467C111.807 54.959 109.393 52.116 106.372 52.0032C106.305 52 106.239 52.0002 106.173 52.0002Z" fill="#050D69"/>
</svg>
