<svg width="95" height="95" viewBox="0 0 95 95" fill="none" xmlns="http://www.w3.org/2000/svg">
<path d="M28.3571 91C24.4105 91 21.0302 89.5969 18.2162 86.7908C15.4022 83.9846 13.9968 80.6099 14 76.6667V34.7656C14 30.9656 15.2794 27.7151 17.8381 25.0141C20.3969 22.3131 23.5347 20.832 27.2516 20.5708V12.7209C27.2516 10.5996 28.0094 8.784 29.5249 7.27422C31.0403 5.76444 32.8589 5.00637 34.9806 5H60.0194C62.1443 5 63.9629 5.75648 65.4751 7.26944C66.9874 8.78241 67.7452 10.598 67.7484 12.7161V20.5756C71.4653 20.8336 74.6031 22.3147 77.1619 25.0189C79.7206 27.7167 81 30.9656 81 34.7656V76.6667C81 80.6099 79.5946 83.9846 76.7838 86.7908C73.973 89.5969 70.5927 91 66.6429 91H28.3571ZM18.7857 53.332H76.2143V34.7656C76.2143 32.1378 75.2779 29.8874 73.4051 28.0146C71.5323 26.1417 69.2782 25.2084 66.6429 25.2148H28.3571C25.725 25.2148 23.4725 26.1496 21.5997 28.0193C19.7269 29.889 18.7889 32.1394 18.7857 34.7703V53.332ZM28.3571 86.2222H66.6429C69.275 86.2222 71.5291 85.2874 73.4051 83.4177C75.2811 81.548 76.2175 79.2976 76.2143 76.6667V58.1098H18.7857V76.6667C18.7857 79.2944 19.7237 81.5448 21.5997 83.4177C23.4757 85.2906 25.7282 86.2254 28.3571 86.2222ZM51.185 20.4322H62.9579V12.7257C62.9579 11.8657 62.6835 11.1601 62.1347 10.6091C61.5828 10.0549 60.8777 9.77778 60.0194 9.77778H34.9854C34.1239 9.77778 33.4172 10.0533 32.8653 10.6043C32.3133 11.1554 32.0374 11.8609 32.0374 12.7209V20.4322H43.8198C43.8198 19.4448 44.1867 18.5848 44.9205 17.8522C45.6543 17.1196 46.5141 16.7533 47.5 16.7533C48.4859 16.7533 49.3473 17.1196 50.0843 17.8522C50.8213 18.5848 51.1882 19.4448 51.185 20.4322Z" fill="#050D69"/>
</svg>
