<svg width="95" height="95" viewBox="0 0 95 95" fill="none" xmlns="http://www.w3.org/2000/svg">
<path d="M15.8337 49H79.1667C80.8686 49 82.5005 49.6765 83.7039 50.8799C84.9072 52.0832 85.5837 53.7152 85.5837 55.417V85.584H80.6667V77.667H14.3337V85.584H9.41675V55.417C9.41675 53.7152 10.0933 52.0832 11.2966 50.8799C12.5 49.6766 14.132 49 15.8337 49ZM23.7498 53.917C22.3022 53.9171 20.9139 54.4921 19.8904 55.5156C18.8668 56.5392 18.2918 57.9275 18.2917 59.375V67.292C18.2917 68.7396 18.8668 70.1277 19.8904 71.1514C20.9139 72.1749 22.3022 72.7499 23.7498 72.75C25.1974 72.75 26.5865 72.175 27.6101 71.1514C28.6335 70.1278 29.2087 68.7395 29.2087 67.292V59.375C29.2087 57.9276 28.6336 56.5392 27.6101 55.5156C26.5865 54.492 25.1974 53.917 23.7498 53.917ZM39.5837 53.917C38.1361 53.917 36.747 54.492 35.7234 55.5156C34.6999 56.5392 34.1248 57.9276 34.1248 59.375V67.292C34.1248 68.7395 34.7 70.1278 35.7234 71.1514C36.747 72.175 38.1361 72.75 39.5837 72.75C41.0313 72.7499 42.4196 72.1749 43.4431 71.1514C44.4666 70.1277 45.0417 68.7396 45.0417 67.292V59.375C45.0417 57.9275 44.4667 56.5392 43.4431 55.5156C42.4196 54.4921 41.0313 53.9171 39.5837 53.917ZM55.4167 53.917C53.9692 53.917 52.581 54.4921 51.5574 55.5156C50.5338 56.5392 49.9588 57.9275 49.9587 59.375V67.292C49.9587 68.7396 50.5337 70.1277 51.5574 71.1514C52.581 72.175 53.9691 72.75 55.4167 72.75C56.8644 72.75 58.2525 72.175 59.2761 71.1514C60.2998 70.1277 60.8748 68.7396 60.8748 67.292V59.375C60.8747 57.9275 60.2997 56.5392 59.2761 55.5156C58.2525 54.4921 56.8643 53.917 55.4167 53.917ZM71.2498 53.917C69.8022 53.9171 68.4139 54.4921 67.3904 55.5156C66.3668 56.5392 65.7918 57.9275 65.7917 59.375V67.292C65.7917 68.7395 66.3668 70.1277 67.3904 71.1514C68.4139 72.1749 69.8022 72.7499 71.2498 72.75C72.6974 72.75 74.0865 72.175 75.1101 71.1514C76.1335 70.1278 76.7087 68.7395 76.7087 67.292V59.375C76.7087 57.9276 76.1336 56.5392 75.1101 55.5156C74.0865 54.492 72.6974 53.917 71.2498 53.917ZM29.3162 12.4375L24.5896 19.7275L24.0623 20.54L24.5857 21.3545L29.6658 29.2607L23.0291 39.5996L18.8542 37.4277L23.5867 30.0635L24.1091 29.251L23.5857 28.4385L18.489 20.543L25.1375 10.2393L29.3162 12.4375ZM76.9978 12.0195L72.2097 19.3691L71.6755 20.1895L72.2117 21.0098L77.3894 28.9199L70.7283 39.2119L66.4802 37.0273L71.2039 29.71L71.7292 28.8965L71.2039 28.083L66.1082 20.1865L72.7654 9.86719L76.9978 12.0195ZM53.0642 12.0176L48.3357 19.377L47.8142 20.1895L48.3376 21.001L53.4265 28.8857L46.781 39.2041L42.6072 37.0332L47.3357 29.71L47.8601 28.8965L47.3357 28.083L42.239 20.1865L48.8933 9.87305L53.0642 12.0176Z" stroke="#050D69" stroke-width="3"/>
</svg>
