<svg width="95" height="95" viewBox="0 0 95 95" fill="none" xmlns="http://www.w3.org/2000/svg">
<rect x="17" y="5" width="61.7" height="78.3563" rx="7" stroke="#050D69" stroke-width="4"/>
<rect x="29.0295" y="18.8799" width="38.5662" height="29.3127" stroke="#050D69" stroke-width="4"/>
<line x1="17.7761" y1="61.1475" x2="78.8493" y2="61.1475" stroke="#050D69" stroke-width="4"/>
<circle cx="33.0443" cy="71.9376" r="4.01478" fill="#D9D9D9" stroke="#050D69" stroke-width="4"/>
<circle cx="63.5809" cy="71.9376" r="4.01478" fill="#D9D9D9" stroke="#050D69" stroke-width="4"/>
<rect x="31.3054" y="84.0801" width="9.02957" height="7.17887" stroke="#050D69" stroke-width="3"/>
<rect x="55.3647" y="84.0801" width="9.02957" height="7.17887" stroke="#050D69" stroke-width="3"/>
<path d="M47.9675 30.1554C43.2718 33.1898 44.6299 39.2257 45.8959 41.8643C35.1233 36.4551 44.2846 28.5063 50.2119 25.208C50.1543 26.9671 50.2809 30.2874 51.2477 29.4958C52.2144 28.7042 52.8014 28.6162 52.974 28.6712C52.8359 29.8586 53.1467 30.7051 53.3193 30.98C56.9101 37.3127 53.0891 40.8748 50.7298 41.8643C54.0098 38.4011 50.3845 34.6081 50.0392 34.2783C49.763 34.0144 49.1185 35.2678 48.8308 35.9274C47.5878 34.4762 47.7373 31.4747 47.9675 30.1554Z" fill="#050D69"/>
</svg>
