<svg width="94" height="94" viewBox="0 0 94 94" fill="none" xmlns="http://www.w3.org/2000/svg">
<path d="M11.75 15.667H43.0833M15.6667 15.667V35.2503C15.6667 41.4829 18.1426 47.4602 22.5497 51.8673C26.9568 56.2744 32.9341 58.7503 39.1667 58.7503H50.9167C51.9554 58.7503 52.9517 59.163 53.6862 59.8975C54.4207 60.632 54.8333 61.6282 54.8333 62.667V78.3337M39.1667 15.667V31.3337C39.1667 32.3724 39.5793 33.3686 40.3138 34.1032C41.0484 34.8377 42.0446 35.2503 43.0833 35.2503H54.8333C61.0659 35.2503 67.0432 37.7262 71.4503 42.1333C75.8575 46.5404 78.3333 52.5177 78.3333 58.7503V78.3337M50.9167 78.3337H82.25M47 35.2503V58.7503" stroke="#050D69" stroke-width="4" stroke-linecap="round" stroke-linejoin="round"/>
</svg>
