<svg width="95" height="95" viewBox="0 0 95 95" fill="none" xmlns="http://www.w3.org/2000/svg">
<path d="M26.7188 11.875C25.9691 11.8745 25.2469 12.1576 24.6973 12.6675C24.1478 13.1774 23.8115 13.8764 23.756 14.6241L23.4947 17.8125H14.8438C14.0564 17.8117 13.301 18.1238 12.7437 18.6799C12.1864 19.2361 11.8729 19.9909 11.8721 20.7783C11.8713 21.5657 12.1833 22.3211 12.7395 22.8784C13.2957 23.4357 14.0505 23.7492 14.8379 23.75H22.996L17.8244 85.8147C17.8165 85.9058 17.8125 85.9988 17.8125 86.0938C17.7834 86.8811 18.0682 87.6478 18.6044 88.2252C19.1405 88.8025 19.8841 89.1432 20.6714 89.1724C21.4588 89.2015 22.2255 88.9167 22.8028 88.3805C23.3802 87.8444 23.7209 87.1008 23.75 86.3135L28.9572 23.75H60.1054L65.3125 86.3135C65.4009 87.0568 65.7657 87.7398 66.3345 88.2265C66.9033 88.7132 67.6344 88.968 68.3825 88.9403C69.1306 88.9126 69.8409 88.6045 70.3722 88.0771C70.9035 87.5497 71.2169 86.8416 71.25 86.0938C71.25 85.9988 71.2461 85.9058 71.2382 85.8147L66.0666 23.75H74.2188C75.0061 23.7508 75.7616 23.4388 76.3189 22.8826C76.8762 22.3264 77.1897 21.5716 77.1905 20.7842C77.1913 19.9969 76.8793 19.2415 76.3231 18.6841C75.7669 18.1268 75.0121 17.8133 74.2247 17.8125H65.5679L65.3125 14.6241C65.3069 14.2151 65.2171 13.8116 65.0488 13.4388C64.8806 13.066 64.6373 12.7319 64.3343 12.4571C64.0313 12.1824 63.675 11.9729 63.2875 11.8418C62.9001 11.7107 62.4898 11.6608 62.0822 11.6951C61.6746 11.7294 61.2785 11.8472 60.9184 12.0412C60.5583 12.2352 60.242 12.5013 59.9892 12.8228C59.7363 13.1444 59.5524 13.5145 59.4488 13.9102C59.3452 14.3059 59.3241 14.7187 59.3869 15.1228L59.6125 17.8125H29.45L29.6757 15.1228L29.6875 14.8438C29.6875 14.0564 29.3748 13.3013 28.818 12.7445C28.2613 12.1878 27.5062 11.875 26.7188 11.875ZM14.8438 26.7188C14.0564 26.7188 13.3013 27.0315 12.7446 27.5883C12.1878 28.145 11.875 28.9002 11.875 29.6875V35.625C11.875 36.4124 12.1878 37.1675 12.7446 37.7242C13.3013 38.281 14.0564 38.5938 14.8438 38.5938C15.6312 38.5938 16.3863 38.281 16.943 37.7242C17.4998 37.1675 17.8125 36.4124 17.8125 35.625V29.6935C17.8133 29.3031 17.7371 28.9164 17.5883 28.5555C17.4394 28.1947 17.2209 27.8667 16.9451 27.5904C16.6694 27.3141 16.3418 27.0949 15.9813 26.9453C15.6207 26.7958 15.2342 26.7188 14.8438 26.7188ZM44.5313 26.7188C43.7439 26.7188 42.9888 27.0315 42.4321 27.5883C41.8753 28.145 41.5625 28.9002 41.5625 29.6875V35.625C41.5625 36.4124 41.8753 37.1675 42.4321 37.7242C42.9888 38.281 43.7439 38.5938 44.5313 38.5938C45.3186 38.5938 46.0738 38.281 46.6305 37.7242C47.1873 37.1675 47.5 36.4124 47.5 35.625V29.6935C47.5008 29.3031 47.4246 28.9164 47.2758 28.5555C47.1269 28.1947 46.9084 27.8667 46.6326 27.5904C46.3569 27.3141 46.0293 27.0949 45.6688 26.9453C45.3082 26.7958 44.9216 26.7188 44.5313 26.7188ZM74.2188 26.7188C73.4314 26.7188 72.6763 27.0315 72.1196 27.5883C71.5628 28.145 71.25 28.9002 71.25 29.6875V35.625C71.25 36.4124 71.5628 37.1675 72.1196 37.7242C72.6763 38.281 73.4314 38.5938 74.2188 38.5938C75.0061 38.5938 75.7613 38.281 76.318 37.7242C76.8748 37.1675 77.1875 36.4124 77.1875 35.625V29.6935C77.1883 29.3031 77.1121 28.9164 76.9633 28.5555C76.8144 28.1947 76.5959 27.8667 76.3201 27.5904C76.0444 27.3141 75.7168 27.0949 75.3563 26.9453C74.9957 26.7958 74.6091 26.7188 74.2188 26.7188Z" fill="#050D69"/>
</svg>
