<svg width="95" height="95" viewBox="0 0 95 95" fill="none" xmlns="http://www.w3.org/2000/svg">
<path d="M47.4999 86.226C48.5348 86.226 49.4882 86.1072 50.562 86.0275L52.8691 90.4009C53.3051 91.2763 54.1805 91.753 55.2526 91.5935C56.2467 91.395 56.9626 90.6791 57.0814 89.6053L57.7973 84.7942C59.7465 84.2785 61.694 83.5219 63.6024 82.6872L67.1819 85.9088C67.9368 86.6246 68.8902 86.7824 69.8843 86.226C70.7597 85.7493 71.1176 84.7942 70.9191 83.7611L69.925 78.9907C71.6102 77.8144 73.1929 76.4979 74.6564 75.055L79.1095 76.9211C80.1036 77.3197 81.018 77.1213 81.7729 76.2069C82.4498 75.491 82.5278 74.4579 81.9714 73.5825L79.3877 69.4483C80.5803 67.7773 81.5354 65.9876 82.4498 64.0791L87.3015 64.3183C88.333 64.3573 89.2083 63.8009 89.5663 62.8085C89.8835 61.8127 89.5663 60.8593 88.7316 60.2231L84.9537 57.2018C85.4711 55.2933 85.8698 53.2254 86.0275 51.0777L90.6401 49.6476C91.6342 49.2897 92.2687 48.533 92.2687 47.4592C92.2687 46.4261 91.6342 45.6712 90.6401 45.3132L86.0258 43.8424C85.8681 41.6947 85.4711 39.7065 84.9537 37.759L88.7299 34.697C89.5663 34.1015 89.8835 33.1872 89.5663 32.193C89.2083 31.1989 88.333 30.6408 87.2998 30.6815L82.4481 30.88C81.5354 28.9715 80.582 27.1818 79.3877 25.5125L81.9731 21.3783C82.5278 20.542 82.4481 19.5089 81.7729 18.793C81.018 17.8786 80.1036 17.6394 79.1095 18.0771L74.6564 19.8668C73.171 18.4597 71.5895 17.1576 69.9233 15.9701L70.9191 11.2388C71.1176 10.1649 70.7597 9.21153 69.8843 8.73314C68.8902 8.21742 67.9368 8.29716 67.1819 9.09108L63.6024 12.2329C61.716 11.414 59.7765 10.7231 57.7973 10.1649L57.0814 5.35385C56.9626 4.31903 56.2467 3.56582 55.2526 3.40635C54.1788 3.24689 53.3051 3.68457 52.8674 4.55992L50.5603 8.93332C49.4882 8.85358 48.5331 8.77385 47.4999 8.77385C46.4261 8.77385 45.4727 8.85358 44.3582 8.93332L42.0934 4.55992C41.6557 3.68457 40.7804 3.24689 39.6675 3.40635C38.6734 3.56582 37.9965 4.32073 37.8388 5.35385L37.1619 10.1259C35.1832 10.7016 33.244 11.4054 31.3567 12.2329L27.779 9.09108C26.9833 8.29716 26.0299 8.21742 25.0748 8.73483C24.2012 9.20983 23.8432 10.1649 24.04 11.2388L25.0358 15.9718C23.3491 17.1478 21.7538 18.4498 20.2638 19.8668L15.8514 18.0771C14.8573 17.6394 13.9022 17.8786 13.1473 18.793C12.8385 19.136 12.6517 19.5714 12.6158 20.0316C12.5799 20.4917 12.697 20.9508 12.9488 21.3376L15.5732 25.5142C14.3806 27.1835 13.4255 28.9749 12.5111 30.8817L7.6203 30.6832C6.58547 30.6442 5.71181 31.2006 5.39458 32.193C5.07565 33.1888 5.35387 34.1032 6.18851 34.6987L10.0055 37.7607C9.48976 39.7082 9.05208 41.6964 8.93333 43.8441L4.31905 45.3149C3.28762 45.6322 2.72949 46.3888 2.72949 47.4626C2.72949 48.5347 3.28762 49.2913 4.32074 49.6493L8.93333 51.1201C9.05208 53.2271 9.48976 55.2933 10.0072 57.2035L6.19021 60.2231C5.35387 60.8593 5.07565 61.8144 5.39288 62.8068C5.71181 63.8009 6.58717 64.3573 7.6203 64.3183L12.5111 64.0808C13.4272 65.9876 14.3806 67.779 15.5324 69.4466L12.9878 73.5825C12.3923 74.4579 12.4721 75.491 13.1473 76.2069C13.9022 77.1213 14.8573 77.3197 15.8514 76.9228L20.2638 75.0533C21.7363 76.5241 23.3665 77.8354 25.0358 78.989L24.0417 83.7611C23.8432 84.7959 24.2012 85.7493 25.0765 86.226C26.069 86.7824 27.024 86.6229 27.779 85.9088L31.3177 82.6872C33.2262 83.5219 35.1737 84.2785 37.1619 84.7942L37.8388 89.6053C37.9965 90.6791 38.6734 91.395 39.6675 91.5935C40.7804 91.753 41.6557 91.2763 42.0934 90.4009L44.3582 86.0275C45.432 86.1072 46.4278 86.226 47.4999 86.226ZM57.48 44.9553C55.6106 39.9457 51.9531 37.2026 47.3812 37.2026C46.7043 37.2026 45.9104 37.2823 44.6381 37.5588L33.2262 18.0771C37.4808 15.9701 42.3309 14.8165 47.4999 14.8165C64.8357 14.8165 78.4326 27.9774 79.6659 44.9553H57.48ZM15.2152 47.4999C15.2152 36.446 20.4232 26.7051 28.6543 20.8219L40.1442 40.4224C37.9965 42.6498 37.0041 45.074 37.0041 47.6594C37.0041 50.1633 37.9575 52.4705 40.1442 54.7759L28.3761 74.0202C20.3435 68.0946 15.2152 58.4741 15.2152 47.4999ZM42.6091 47.6187C42.6091 44.9163 44.9163 42.8076 47.4609 42.8076C50.1633 42.8076 52.3907 44.9163 52.3907 47.6187C52.3907 50.2821 50.1633 52.4705 47.4609 52.4705C44.9163 52.4705 42.6091 50.2821 42.6091 47.6187ZM47.4999 80.1833C42.2122 80.1833 37.2824 78.95 32.948 76.804L44.6364 57.6785C45.8697 57.9974 46.706 58.0755 47.3812 58.0755C51.9921 58.0755 55.6513 55.2526 57.48 50.1243H79.6642C78.3919 67.0207 64.795 80.1833 47.4999 80.1833Z" fill="#050D69"/>
</svg>
