<svg width="102" height="102" viewBox="0 0 102 102" fill="none" xmlns="http://www.w3.org/2000/svg">
<path d="M20.4 20.4002C20.4 17.695 21.4746 15.1006 23.3875 13.1877C25.3004 11.2748 27.8948 10.2002 30.6 10.2002H53.9886C56.0168 10.202 57.9613 11.0091 59.3946 12.4442L79.3611 32.4056C80.7943 33.8397 81.5995 35.7841 81.6 37.8116V81.6002C81.6 84.3054 80.5253 86.8998 78.6125 88.8127C76.6996 90.7256 74.1052 91.8002 71.4 91.8002H60.7665C60.3851 90.7255 59.7682 89.7497 58.9611 88.9442L56.7171 86.7002H71.4C72.7526 86.7002 74.0498 86.1629 75.0062 85.2064C75.9627 84.25 76.5 82.9528 76.5 81.6002V40.8002H58.65C56.6211 40.8002 54.6753 39.9942 53.2406 38.5596C51.806 37.1249 51 35.1791 51 33.1502V15.3002H30.6C29.2474 15.3002 27.9502 15.8375 26.9937 16.794C26.0373 17.7504 25.5 19.0476 25.5 20.4002V46.0379C23.7608 46.2332 22.0497 46.6267 20.4 47.2109V20.4002ZM58.65 35.7002H75.4443L56.1 16.3559V33.1502C56.1 33.8265 56.3686 34.4751 56.8469 34.9533C57.3251 35.4315 57.9737 35.7002 58.65 35.7002ZM28.05 86.7002C32.0586 86.7002 35.7612 85.3742 38.7396 83.1455L51.7446 96.1505C51.9813 96.3876 52.2625 96.5757 52.5719 96.7042C52.8814 96.8326 53.2131 96.8988 53.5482 96.8991C53.8832 96.8993 54.215 96.8335 54.5247 96.7055C54.8343 96.5775 55.1157 96.3898 55.3528 96.153C55.5899 95.9163 55.778 95.6352 55.9065 95.3257C56.0349 95.0162 56.1012 94.6845 56.1014 94.3494C56.1016 94.0144 56.0359 93.6826 55.9079 93.3729C55.7799 93.0633 55.5921 92.7819 55.3554 92.5448L42.3504 79.5398C44.7576 76.3205 46.0078 72.383 45.8985 68.3648C45.7892 64.3465 44.3268 60.4828 41.748 57.3992C39.1693 54.3156 35.6252 52.1927 31.6897 51.3742C27.7542 50.5557 23.6576 51.0895 20.0632 52.8892C16.4689 54.689 13.5872 57.6492 11.8849 61.2907C10.1825 64.9322 9.75908 69.0417 10.6832 72.9537C11.6073 76.8658 13.8248 80.3515 16.9767 82.8463C20.1285 85.3411 24.0302 86.699 28.05 86.7002ZM28.05 81.6002C24.6685 81.6002 21.4254 80.2569 19.0344 77.8658C16.6433 75.4747 15.3 72.2317 15.3 68.8502C15.3 65.4687 16.6433 62.2257 19.0344 59.8346C21.4254 57.4435 24.6685 56.1002 28.05 56.1002C31.4315 56.1002 34.6745 57.4435 37.0656 59.8346C39.4567 62.2257 40.8 65.4687 40.8 68.8502C40.8 72.2317 39.4567 75.4747 37.0656 77.8658C34.6745 80.2569 31.4315 81.6002 28.05 81.6002Z" fill="white"/>
</svg>
