<svg width="102" height="102" viewBox="0 0 102 102" fill="none" xmlns="http://www.w3.org/2000/svg">
<path d="M72.25 85C76.9444 85 80.75 81.1944 80.75 76.5C80.75 71.8056 76.9444 68 72.25 68C67.5556 68 63.75 71.8056 63.75 76.5C63.75 81.1944 67.5556 85 72.25 85Z" stroke="white" stroke-width="4"/>
<path d="M29.75 85C34.4444 85 38.25 81.1944 38.25 76.5C38.25 71.8056 34.4444 68 29.75 68C25.0556 68 21.25 71.8056 21.25 76.5C21.25 81.1944 25.0556 85 29.75 85Z" stroke="white" stroke-width="4"/>
<path d="M21.25 76.381C16.5877 76.1515 13.685 75.4587 11.611 73.389C9.537 71.3192 8.8485 68.4123 8.619 63.75M38.25 76.5H63.75M80.75 76.381C85.4123 76.1515 88.315 75.4587 90.389 73.389C93.5 70.2737 93.5 65.2673 93.5 55.25V46.75H73.525C70.3587 46.75 68.7777 46.75 67.4985 46.3335C66.2229 45.919 65.0634 45.2084 64.115 44.26C63.1666 43.3116 62.456 42.1521 62.0415 40.8765C61.625 39.5973 61.625 38.0162 61.625 34.85C61.625 30.1027 61.625 27.7312 61.0002 25.8102C60.3785 23.8968 59.3127 22.1576 57.89 20.735C56.4674 19.3123 54.7282 18.2465 52.8148 17.6247C50.8938 17 48.5223 17 43.775 17H8.5M8.5 34H34M8.5 46.75H25.5" stroke="white" stroke-width="4" stroke-linecap="round" stroke-linejoin="round"/>
<path d="M61.625 25.5H69.3642C75.5522 25.5 78.642 25.5 81.158 27.0045C83.6783 28.5048 85.1445 31.229 88.077 36.6775L93.5 46.75" stroke="white" stroke-width="4" stroke-linecap="round" stroke-linejoin="round"/>
</svg>
