<svg width="102" height="102" viewBox="0 0 102 102" fill="none" xmlns="http://www.w3.org/2000/svg">
<path d="M89.4638 23.9382L71.1304 5.5382C70.96 5.36739 70.7578 5.23194 70.5352 5.13959C70.3127 5.04724 70.0742 4.99981 69.8333 5H33.1667C31.708 5 30.309 5.58157 29.2776 6.61677C28.2461 7.65197 27.6667 9.05601 27.6667 10.52V19.72H18.5C17.0413 19.72 15.6424 20.3016 14.6109 21.3368C13.5795 22.372 13 23.776 13 25.24V91.48C13 92.944 13.5795 94.348 14.6109 95.3832C15.6424 96.4184 17.0413 97 18.5 97H69.8333C71.292 97 72.691 96.4184 73.7224 95.3832C74.7539 94.348 75.3333 92.944 75.3333 91.48V82.28H84.5C85.9587 82.28 87.3576 81.6984 88.3891 80.6632C89.4205 79.628 90 78.224 90 76.76V25.24C90.0002 24.9983 89.9529 24.7589 89.8609 24.5356C89.7689 24.3122 89.6339 24.1092 89.4638 23.9382ZM71.6667 91.48C71.6667 91.968 71.4735 92.436 71.1297 92.7811C70.7859 93.1261 70.3196 93.32 69.8333 93.32H18.5C18.0138 93.32 17.5475 93.1261 17.2036 92.7811C16.8598 92.436 16.6667 91.968 16.6667 91.48V25.24C16.6667 24.752 16.8598 24.284 17.2036 23.9389C17.5475 23.5939 18.0138 23.4 18.5 23.4H54.4058L71.6667 40.7236V91.48ZM86.3333 76.76C86.3333 77.248 86.1402 77.716 85.7964 78.0611C85.4525 78.4061 84.9862 78.6 84.5 78.6H75.3333V39.96C75.3335 39.7183 75.2863 39.4789 75.1943 39.2556C75.1022 39.0322 74.9673 38.8292 74.7971 38.6582L56.4638 20.2582C56.2934 20.0874 56.0911 19.9519 55.8686 19.8596C55.646 19.7672 55.4075 19.7198 55.1667 19.72H31.3333V10.52C31.3333 10.032 31.5265 9.56399 31.8703 9.21892C32.2141 8.87386 32.6804 8.68 33.1667 8.68H69.0725L86.3333 26.0036V76.76ZM57 62.04C57 62.528 56.8068 62.996 56.463 63.3411C56.1192 63.6861 55.6529 63.88 55.1667 63.88H33.1667C32.6804 63.88 32.2141 63.6861 31.8703 63.3411C31.5265 62.996 31.3333 62.528 31.3333 62.04C31.3333 61.552 31.5265 61.084 31.8703 60.7389C32.2141 60.3939 32.6804 60.2 33.1667 60.2H55.1667C55.6529 60.2 56.1192 60.3939 56.463 60.7389C56.8068 61.084 57 61.552 57 62.04ZM57 76.76C57 77.248 56.8068 77.716 56.463 78.0611C56.1192 78.4061 55.6529 78.6 55.1667 78.6H33.1667C32.6804 78.6 32.2141 78.4061 31.8703 78.0611C31.5265 77.716 31.3333 77.248 31.3333 76.76C31.3333 76.272 31.5265 75.804 31.8703 75.4589C32.2141 75.1139 32.6804 74.92 33.1667 74.92H55.1667C55.6529 74.92 56.1192 75.1139 56.463 75.4589C56.8068 75.804 57 76.272 57 76.76Z" fill="white"/>
</svg>
