<svg width="102" height="102" viewBox="0 0 102 102" fill="none" xmlns="http://www.w3.org/2000/svg">
<path d="M51 93.5003C47.5235 93.5003 44.2 92.0766 37.5572 89.2248C21.0205 82.1273 12.75 78.5828 12.75 72.6116V32.9251M51 93.5003C54.4765 93.5003 57.8 92.0766 64.4428 89.2248C80.9795 82.1273 89.25 78.5828 89.25 72.6116V32.9251M51 93.5003V51.7228M12.75 32.9251C12.75 35.4921 16.1585 37.1156 22.9713 40.3541L35.3812 46.2616C43.0482 49.9038 46.8775 51.7228 51 51.7228M12.75 32.9251C12.75 30.3581 16.1585 28.7431 22.9713 25.5003M89.25 32.9251C89.25 35.4878 85.8415 37.1113 79.0287 40.3541L66.6188 46.2616C58.9475 49.8996 55.1225 51.7228 51 51.7228M89.25 32.9251C89.25 30.3581 85.8415 28.7388 79.0287 25.4961M26.911 56.5721L35.3855 60.6011" stroke="white" stroke-width="4" stroke-linecap="round" stroke-linejoin="round"/>
<path d="M51 8.5V17M68 12.75L61.625 21.25M34 12.75L40.375 21.25" stroke="white" stroke-width="4" stroke-linecap="round"/>
</svg>
