<svg width="102" height="102" viewBox="0 0 102 102" fill="none" xmlns="http://www.w3.org/2000/svg">
<path d="M29.7492 72.2507V38.25H55.2492V46.7507H67.1505L75.6492 38.25H85.0005C86.1275 38.25 87.2083 38.6977 88.0052 39.4946C88.8021 40.2915 89.2498 41.3723 89.2498 42.4993V85.0007C89.2498 86.1277 88.8021 87.2085 88.0052 88.0054C87.2083 88.8023 86.1275 89.25 85.0005 89.25H21.2505C20.1233 89.2675 19.0038 89.0605 17.9572 88.6412C16.9107 88.2219 15.958 87.5986 15.1547 86.8076C14.3513 86.0166 13.7134 85.0737 13.2779 84.0338C12.8424 82.9939 12.6182 81.8777 12.6182 80.7503C12.6182 79.6229 12.8424 78.5068 13.2779 77.4669C13.7134 76.427 14.3513 75.4841 15.1547 74.6931C15.958 73.9021 16.9107 73.2788 17.9572 72.8595C19.0038 72.4402 20.1233 72.2332 21.2505 72.2507M21.2505 72.2507C18.9964 72.2507 16.8345 73.146 15.2404 74.7397C13.6462 76.3335 12.7504 78.4952 12.7498 80.7493V34.0007C12.7498 31.7462 13.6455 29.584 15.2396 27.9898C16.8338 26.3956 18.996 25.5 21.2505 25.5H29.7492V72.2507H21.2505Z" stroke="white" stroke-width="4" stroke-linecap="round" stroke-linejoin="round"/>
<path d="M82.0669 13.9821L88.0175 19.9307C88.796 20.725 89.232 21.7949 89.232 22.9071C89.232 24.0192 88.796 25.0871 88.0175 25.8814L67.1504 46.7506H55.249V34.8513L76.1182 13.9821C76.9125 13.2036 77.9804 12.7676 79.0925 12.7676C80.2047 12.7676 81.2726 13.2036 82.0669 13.9821Z" stroke="white" stroke-width="4" stroke-linecap="round" stroke-linejoin="round"/>
</svg>
