<svg width="102" height="102" viewBox="0 0 102 102" fill="none" xmlns="http://www.w3.org/2000/svg">
<path d="M82.875 19.125C79.4018 22.4472 75.2714 25.0054 70.7497 26.6347C65.9812 27.4762 52.785 21.3562 46.2825 27.6037C45.1987 28.6875 43.86 29.7713 42.4575 30.855C39.3975 29.5163 34.68 27.4762 31.2375 25.5C27.795 23.5237 19.125 19.125 19.125 19.125L0 41.4375C0 41.4375 4.7175 47.8125 7.65 52.02C9.5625 54.825 11.9212 59.0963 13.4512 61.965L11.2837 64.515C10.7684 65.547 10.5837 66.7128 10.7548 67.8536C10.9259 68.9943 11.4445 70.0546 12.24 70.89C13.1607 71.5842 14.283 71.9586 15.436 71.9563C16.5891 71.954 17.7098 71.5751 18.6278 70.8773C18.2869 71.2763 18.029 71.7393 17.869 72.2391C17.7089 72.7389 17.6501 73.2655 17.6958 73.7883C17.7414 74.3111 17.8908 74.8196 18.1351 75.2841C18.3794 75.7486 18.7137 76.1597 19.1186 76.4936C20.0934 77.0583 21.2004 77.3547 22.327 77.3524C23.4535 77.3502 24.5593 77.0495 25.5319 76.4809C24.8035 77.3887 24.4049 78.517 24.4015 79.681C24.398 80.8449 24.7898 81.9755 25.5127 82.8877C26.4523 83.2141 27.4547 83.3183 28.4413 83.1922C29.4279 83.0661 30.3719 82.7131 31.1993 82.161C30.7851 83.1367 30.6773 84.2152 30.8902 85.2536C31.1031 86.2919 31.6267 87.241 32.3914 87.975C33.4704 88.4499 34.6517 88.6451 35.8261 88.5426C37.0006 88.4401 38.1302 88.0432 39.1106 87.3885L42.4001 84.4114C45.4091 87.4076 49.5592 89.2627 54.1429 89.2627L54.5317 89.2564C56.0425 89.1281 57.4898 88.591 58.7185 87.7026C59.9471 86.8143 60.9108 85.6082 61.506 84.2138C62.4367 84.5707 63.495 84.813 64.617 84.813C66.1215 84.813 67.5176 84.3795 68.697 83.6336C72.4264 81.1665 71.5339 79.254 71.5339 79.254C72.86 79.8248 74.333 79.9602 75.741 79.6406C77.1489 79.3209 78.4191 78.5628 79.3688 77.4754C80.3556 76.4658 80.9779 75.1562 81.1372 73.7535C81.2965 72.3507 80.9838 70.9349 80.2485 69.7297C80.2894 69.7524 80.3357 69.7635 80.3824 69.7616C83.0663 69.7616 85.3995 68.2826 86.6171 66.1024C87.2186 64.5532 87.4224 62.878 87.2096 61.2298C86.9969 59.5817 86.3746 58.0131 85.3995 56.6674L85.4186 56.6992C90.6461 55.6792 90.4549 53.0655 93.0049 49.2405C95.4163 46.1162 98.4212 43.4991 101.847 41.5395L82.875 19.125ZM82.5563 64.1325C79.7513 66.9375 77.5837 65.7262 72.8025 62.0925C68.0212 58.4587 58.5225 51.6375 58.5225 51.6375C58.9114 53.5819 59.8103 55.2712 61.0789 56.6164C63.1125 58.905 69.1688 64.1325 72.0375 66.81C73.8225 68.4675 78.4125 71.7825 75.735 74.3325C73.0575 76.8825 70.9538 74.3325 66.555 70.7625C62.1562 67.1925 52.3387 58.395 52.3387 58.395C52.2859 59.2382 52.4119 60.083 52.7086 60.8741C53.0052 61.6651 53.4657 62.3845 54.06 62.985C55.1437 64.26 61.2 70.125 63.75 72.8025C66.3 75.48 68.5312 77.0737 66.3637 79.1775C64.1963 81.2812 59.7975 77.9663 57.375 75.48C53.6138 71.8463 46.155 65.0887 46.155 65.0887L46.1486 65.4266C46.1486 67.2371 46.7734 68.8946 47.8252 70.2079C49.6612 72.6176 53.2312 75.7414 55.3987 78.1639C57.5662 80.5864 58.8412 82.6264 55.3987 84.5389C51.9562 86.4514 46.8563 81.7339 44.625 79.4389V79.4261C44.6319 78.7953 44.4048 78.1843 43.9875 77.7112C43.2235 77.0073 42.2827 76.524 41.2654 76.3129C40.2482 76.1018 39.1928 76.1709 38.2118 76.5127C38.6144 76.151 38.937 75.7091 39.1591 75.2155C39.3811 74.7219 39.4977 74.1873 39.5013 73.6461C39.5049 73.1048 39.3954 72.5688 39.18 72.0722C38.9645 71.5757 38.6478 71.1296 38.25 70.7625C37.4132 70.1285 36.3918 69.7859 35.3419 69.787C34.2921 69.7882 33.2714 70.133 32.436 70.7689C32.8584 70.3654 33.1845 69.8719 33.3901 69.3251C33.5956 68.7782 33.6753 68.1921 33.6232 67.6103C33.5712 67.0284 33.3887 66.4658 33.0893 65.9641C32.79 65.4625 32.3815 65.0347 31.8941 64.7126C30.7529 63.9955 29.4137 63.6586 28.069 63.7503C26.7243 63.8419 25.4433 64.3574 24.4099 65.2226C25.1006 64.3855 25.4411 63.3139 25.3603 62.2317C25.2795 61.1495 24.7837 60.1403 23.9764 59.415C22.971 58.4848 21.6928 57.9032 20.331 57.7562C18.9692 57.6092 17.5963 57.9047 16.4156 58.599L12.1762 51.4399C9.24375 46.7861 5.80125 41.9411 5.80125 41.9411L20.3363 24.2824C20.3363 24.2824 25.5 27.4699 29.7712 29.8924C31.875 31.1036 35.5088 32.6974 38.25 33.9724C33.915 37.2236 30.2812 40.3474 31.365 42.5149C33.2949 43.9047 35.6035 44.6715 37.9814 44.7125C40.3593 44.7535 42.6929 44.0668 44.6696 42.7444C47.2041 41.0548 50.1853 40.1603 53.2313 40.1753C55.4434 40.1753 57.5471 40.6343 59.4533 41.4694C62.985 43.8536 69.4875 49.7186 75.4163 53.4161C82.875 58.8349 84.3412 62.3411 82.5563 64.1261V64.1325Z" fill="white"/>
</svg>
