<svg width="102" height="102" viewBox="0 0 102 102" fill="none" xmlns="http://www.w3.org/2000/svg">
<path d="M41.569 16.5328C43.966 14.4928 45.1645 13.4728 46.414 12.8735C47.8452 12.1892 49.4113 11.834 50.9977 11.834C52.584 11.834 54.1502 12.1892 55.5813 12.8735C56.835 13.4685 58.0335 14.4885 60.4263 16.5328C61.3825 17.3488 61.8585 17.7525 62.3685 18.0925C63.5365 18.8753 64.8481 19.4184 66.2275 19.6905C66.8268 19.8095 67.4515 19.8605 68.701 19.9625C71.8418 20.209 73.41 20.3365 74.719 20.7998C76.2142 21.3274 77.5723 22.183 78.6937 23.3037C79.8152 24.4245 80.6717 25.782 81.2003 27.2768C81.6635 28.59 81.7868 30.1583 82.0375 33.2948C82.1353 34.5443 82.1863 35.169 82.3053 35.7725C82.5773 37.1495 83.1213 38.4628 83.9033 39.6273C84.2433 40.1373 84.6513 40.6133 85.463 41.5695C87.503 43.9665 88.5273 45.165 89.1265 46.4145C89.8109 47.8456 90.1661 49.4118 90.1661 50.9982C90.1661 52.5845 89.8109 54.1507 89.1265 55.5818C88.5315 56.8313 87.5073 58.0298 85.463 60.4268C84.9056 61.0431 84.3848 61.6917 83.9033 62.369C83.1211 63.5357 82.5779 64.8459 82.3053 66.2238C82.1863 66.8273 82.1353 67.452 82.0375 68.7015C81.7868 71.838 81.6635 73.4105 81.2003 74.7195C80.6717 76.2143 79.8152 77.5718 78.6937 78.6926C77.5723 79.8133 76.2142 80.6689 74.719 81.1965C73.41 81.664 71.8418 81.7873 68.701 82.0338C67.4515 82.1358 66.831 82.1868 66.2275 82.3058C64.8481 82.5779 63.5365 83.121 62.3685 83.9038C61.6926 84.3854 61.0455 84.9062 60.4305 85.4635C58.0335 87.5035 56.835 88.5235 55.5855 89.1228C54.1544 89.8071 52.5882 90.1623 51.0019 90.1623C49.4156 90.1623 47.8494 89.8071 46.4183 89.1228C45.1645 88.5278 43.966 87.5078 41.5733 85.4635C40.9569 84.9061 40.3084 84.3853 39.631 83.9038C38.4631 83.121 37.1514 82.5779 35.772 82.3058C34.9536 82.1669 34.1276 82.076 33.2985 82.0338C30.1578 81.7873 28.5895 81.6598 27.2805 81.1965C25.7854 80.6689 24.4273 79.8133 23.3058 78.6926C22.1843 77.5718 21.3279 76.2143 20.7993 74.7195C20.336 73.4105 20.2128 71.838 19.962 68.7015C19.9213 67.8711 19.8319 67.0437 19.6943 66.2238C19.4217 64.8459 18.8785 63.5357 18.0963 62.369C17.7563 61.859 17.3483 61.383 16.5365 60.4268C14.4965 58.0298 13.4723 56.8313 12.873 55.5818C12.1887 54.1507 11.8335 52.5845 11.8335 50.9982C11.8335 49.4118 12.1887 47.8456 12.873 46.4145C13.4723 45.165 14.4923 43.9665 16.5365 41.5695C17.3483 40.6133 17.7563 40.1373 18.0963 39.6273C18.8785 38.4606 19.4217 37.1504 19.6943 35.7725C19.8133 35.169 19.8643 34.5443 19.962 33.2948C20.2128 30.1583 20.336 28.59 20.7993 27.2768C21.3283 25.7816 22.1854 24.4237 23.3077 23.303C24.4299 22.1822 25.7889 21.3269 27.2848 20.7998C28.5938 20.3365 30.162 20.209 33.3028 19.9625C34.5523 19.8605 35.1728 19.8095 35.7763 19.6905C37.1557 19.4184 38.4674 18.8753 39.6353 18.0925C40.1453 17.7525 40.617 17.3488 41.569 16.5328Z" stroke="white" stroke-width="5"/>
<path d="M36.1248 53.125L44.6248 61.625L65.8748 40.375" stroke="white" stroke-width="5" stroke-linecap="round" stroke-linejoin="round"/>
</svg>
