<svg width="95" height="95" viewBox="0 0 95 95" fill="none" xmlns="http://www.w3.org/2000/svg">
<path d="M42.3047 65.3129C42.3047 65.9034 42.0701 66.4698 41.6525 66.8873C41.235 67.3049 40.6686 67.5395 40.0781 67.5395H29.6875C29.097 67.5395 28.5306 67.3049 28.1131 66.8873C27.6955 66.4698 27.4609 65.9034 27.4609 65.3129C27.4609 64.7224 27.6955 64.156 28.1131 63.7385C28.5306 63.3209 29.097 63.0863 29.6875 63.0863H40.0781C40.6686 63.0863 41.235 63.3209 41.6525 63.7385C42.0701 64.156 42.3047 64.7224 42.3047 65.3129ZM65.3125 63.0863H54.9219C54.3314 63.0863 53.765 63.3209 53.3475 63.7385C52.9299 64.156 52.6953 64.7224 52.6953 65.3129C52.6953 65.9034 52.9299 66.4698 53.3475 66.8873C53.765 67.3049 54.3314 67.5395 54.9219 67.5395H65.3125C65.903 67.5395 66.4694 67.3049 66.8869 66.8873C67.3045 66.4698 67.5391 65.9034 67.5391 65.3129C67.5391 64.7224 67.3045 64.156 66.8869 63.7385C66.4694 63.3209 65.903 63.0863 65.3125 63.0863ZM88.3203 80.1566C88.3203 80.7472 88.0857 81.3135 87.6682 81.7311C87.2506 82.1486 86.6843 82.3832 86.0938 82.3832H8.90625C8.31573 82.3832 7.74939 82.1486 7.33183 81.7311C6.91427 81.3135 6.67969 80.7472 6.67969 80.1566C6.67969 79.5661 6.91427 78.9998 7.33183 78.5822C7.74939 78.1647 8.31573 77.9301 8.90625 77.9301H12.6172V32.6566C12.6172 32.2431 12.7323 31.8378 12.9497 31.4861C13.1671 31.1343 13.4782 30.8501 13.848 30.6651C14.2178 30.4802 14.6319 30.4019 15.0437 30.4391C15.4555 30.4762 15.8489 30.6273 16.1797 30.8754L36.3672 46.016V32.6566C36.3672 32.2431 36.4823 31.8378 36.6997 31.4861C36.9171 31.1343 37.2282 30.8501 37.598 30.6651C37.9678 30.4802 38.3819 30.4019 38.7937 30.4391C39.2055 30.4762 39.5989 30.6273 39.9297 30.8754L55.293 42.409L59.7461 11.1406C59.9297 9.90616 60.5494 8.7783 61.4929 7.96138C62.4365 7.14447 63.6414 6.69255 64.8895 6.6875H71.6137C72.8617 6.69255 74.0667 7.14447 75.0102 7.96138C75.9537 8.7783 76.5734 9.90616 76.757 11.1406L82.3234 50.1537C82.3234 50.1537 82.3457 50.3727 82.3457 50.4691V77.9301H86.0566C86.3521 77.9252 86.6457 77.9791 86.9201 78.0888C87.1945 78.1985 87.4444 78.3617 87.6551 78.569C87.8658 78.7762 88.0331 79.0233 88.1473 79.2959C88.2616 79.5685 88.3204 79.8611 88.3203 80.1566ZM59.375 45.4557L63.0859 48.2426H77.5883L72.3633 11.7715C72.3381 11.5932 72.2489 11.4301 72.1123 11.3126C71.9758 11.1952 71.8012 11.1314 71.6211 11.1332H64.9191C64.739 11.1314 64.5645 11.1952 64.4279 11.3126C64.2914 11.4301 64.2022 11.5932 64.177 11.7715L59.375 45.4557ZM17.0703 77.9301H77.9297V52.6957H62.3438C61.862 52.6957 61.3932 52.5395 61.0078 52.2504L55.6641 48.2426L40.8203 37.1098V50.4691C40.8203 50.8826 40.7052 51.288 40.4878 51.6397C40.2704 51.9915 39.9593 52.2757 39.5895 52.4606C39.2197 52.6456 38.8056 52.7238 38.3938 52.6867C37.982 52.6496 37.5886 52.4985 37.2578 52.2504L17.0703 37.1098V77.9301Z" fill="#050D69"/>
</svg>
