<svg width="86" height="86" viewBox="0 0 86 86" fill="none" xmlns="http://www.w3.org/2000/svg">
<path d="M40.4971 3.67973C25.4303 3.65454 11.4402 4.09462 11.6166 5.06883L15.3253 11.1392C25.2959 10.2826 34.803 9.97184 44.3268 10.0357C53.2627 10.0945 62.2155 10.4841 71.5545 11.0586L76.7952 5.4686C76.0393 4.33649 57.5795 3.70829 40.4971 3.67973ZM41.1354 13.0541C32.8881 13.0742 24.6241 13.3883 15.9921 14.1156C12.3321 34.8866 10.3047 60.2331 15.0683 75.871L10.6289 81.0781C32.1491 82.6906 54.0522 83.2113 74.8971 82.1363L69.8748 76.1566C73.1166 58.3183 72.1088 33.9628 69.9084 13.988C61.3084 13.474 53.0612 13.1313 44.8307 13.0658L67.3721 33.7613H55.3959C56.0342 37.6413 58.8225 42.882 61.762 47.7363C63.4248 50.4909 65.1213 53.1616 66.4147 55.5132C67.708 57.8648 68.6991 59.83 68.6991 61.812C68.6991 66.5152 65.5245 70.3784 60.8549 72.8812C56.1854 75.4007 49.9202 76.7613 42.9998 76.7613C36.0795 76.7613 29.8143 75.4007 25.1448 72.8812C20.4752 70.3784 17.3006 66.5152 17.3006 61.812C17.3006 59.7964 18.342 57.8312 19.7026 55.446C21.0631 53.0609 22.8268 50.3734 24.5401 47.5851C27.5635 42.6972 30.3182 37.423 30.7045 33.7613H17.4686L41.1354 13.0541ZM42.983 15.4678L25.5311 30.7378H33.644L33.7616 32.1152C34.2151 37.4734 30.587 43.537 27.11 49.1808C25.3631 52.0027 23.6163 54.6734 22.3397 56.9409C21.0463 59.1917 20.3241 61.1402 20.3241 61.812C20.3241 64.2644 21.4998 66.4312 23.7002 68.2956C32.8041 67.1534 37.4737 66.5152 41.5721 66.3808C41.6729 64.9531 41.8577 63.5253 42.0928 62.148C35.9452 62.5343 30.2846 60.8882 24.708 58.9062C27.2108 54.0687 31.8131 50.6925 35.962 50.7093C36.7346 50.7093 37.4905 50.8101 38.2127 51.062C40.094 51.6667 41.7905 55.0429 42.9159 57.8816C43.2854 56.1179 43.6381 54.6062 43.7893 53.4976V53.4808C43.9405 52.4394 43.5205 49.4495 42.983 46.9804C42.5967 45.1999 42.1936 43.6378 41.992 42.8988C40.9338 42.8988 39.9932 42.6972 39.3717 42.0589C35.1053 37.6245 37.8768 29.4277 41.5385 24.8589C44.142 29.1925 47.535 33.862 50.9448 37.087C50.2057 39.573 48.862 41.5718 46.2584 42.462C45.9057 42.4956 45.469 42.546 45.0323 42.6132C45.2674 43.4866 45.6034 44.7968 45.9393 46.3253C46.1577 47.2827 46.3592 48.2738 46.5272 49.2648C47.4174 48.4417 48.442 47.6859 49.2819 47.6523H49.4666C54.1698 48.089 59.4944 52.6241 60.8381 59.2421C56.219 57.1257 50.928 58.3519 46.7455 54.1695C46.2752 57.2937 44.9651 61.9968 44.6123 66.3976C48.6604 66.532 53.3299 67.1702 62.2995 68.2956C64.4998 66.4312 65.6756 64.2644 65.6756 61.812C65.6756 61.1066 64.987 59.1917 63.7608 56.9745C62.5346 54.7406 60.8717 52.1034 59.1752 49.2984C55.7991 43.7218 52.2381 37.6581 52.2381 32.2495V30.7378H59.612L42.983 15.4678ZM42.9998 69.3538C39.2541 69.3538 35.2901 69.8577 27.7651 70.8152C31.7459 72.646 37.0873 73.7378 42.9998 73.7378C48.9123 73.7378 54.2538 72.646 58.2346 70.8152C50.7096 69.8577 46.7455 69.3538 42.9998 69.3538Z" fill="#050D69"/>
</svg>
