<svg width="83" height="83" viewBox="0 0 83 83" fill="none" xmlns="http://www.w3.org/2000/svg">
<path d="M54.0959 3.55371C54.0959 3.55371 56.3816 7.36166 55.7656 9.24051C55.2145 10.9232 51.9561 10.7481 51.5508 12.473C51.2428 13.8428 52.718 15.9567 53.5771 17.038H54.6795C55.8305 15.2207 56.7221 13.5072 56.949 11.3739C58.2297 12.7129 58.635 14.8252 57.1273 17.038H58.4891C59.7859 15.4914 62.4121 12.0288 61.9258 9.7933C61.2287 6.53004 54.0959 3.55371 54.0959 3.55371ZM16.8594 8.2792C14.0225 8.2792 12.0869 9.08002 11.1061 10.5504C10.1254 12.0207 10.2129 13.6288 10.2129 14.9257V16.8759H13.1309V14.9257C13.1309 13.6288 13.2184 12.6432 13.5345 12.1682C13.8506 11.6932 14.5088 11.1972 16.8594 11.1972H27.2344C28.8555 11.1972 30.9629 13.2171 30.9629 15.1834V34.9673H33.8809V30.3309H50.6268L50.8861 27.413H33.8809V15.1834C33.8809 11.4468 30.8008 8.2792 27.2344 8.2792H16.8594ZM9.07812 19.6317V22.5497H14.2656V19.6317H9.07812ZM54.5012 19.9559L52.183 45.5692H59.3482L57.0301 19.9559H54.5012ZM11.6719 25.1434C10.0508 25.1434 8.44914 25.6946 7.29168 26.7159C6.1326 27.7534 5.34961 29.2286 5.34961 31.4657V79.4501H17.9941V31.4657C17.9941 29.2448 17.216 27.7534 16.0488 26.7159C14.8946 25.6946 13.293 25.1434 11.6719 25.1434ZM61.5854 37.788L61.8447 40.7059H66.1406C68.4912 40.7059 69.9826 41.2733 70.9391 42.2298C71.8955 43.2024 72.4629 44.7425 72.4629 47.1579V53.6261C72.9168 53.4477 73.4031 53.3505 73.9219 53.3505C74.4406 53.3505 74.927 53.4477 75.3809 53.6261V47.1579C75.3809 44.2561 74.6514 41.8407 73.0141 40.1872C71.3768 38.5175 68.9775 37.788 66.1406 37.788H61.5854ZM28.6934 38.1122V40.3817H36.1504V38.1122H28.6934ZM32.5029 43.2997C27.6883 43.2997 23.4572 45.6827 20.9121 49.3464V52.0536H43.9316V49.1194C41.3703 45.6016 37.2203 43.2997 32.5029 43.2997ZM46.8496 48.4872V66.3192H64.6816V48.4872H46.8496ZM20.9121 54.9716V57.2411H43.9316V54.9716H20.9121ZM73.9219 56.2684C73.2734 56.2684 72.7871 56.7548 72.7871 57.4032C72.7871 58.0516 73.2734 58.538 73.9219 58.538C74.5703 58.538 75.0566 58.0516 75.0566 57.4032C75.0566 56.7548 74.5703 56.2684 73.9219 56.2684ZM20.9121 60.1591V65.4438C21.982 66.9839 23.3438 68.297 24.9162 69.302L21.2363 76.6942V79.4501H27.3154V76.6942H24.4947L27.5424 70.6151C29.0824 71.1825 30.7521 71.5067 32.5029 71.5067C34.2537 71.5067 35.9234 71.1825 37.4635 70.6151L40.5111 76.6942H37.6904V79.4501H48.0654V76.6942H43.7857L40.0896 69.302C41.5811 68.3456 42.8941 67.1136 43.9316 65.687V60.1591H20.9121ZM72.4629 61.1804V66.3192H75.3809V61.1804C74.927 61.3587 74.4406 61.4559 73.9219 61.4559C73.4031 61.4559 72.9168 61.3587 72.4629 61.1804ZM53.6096 69.2372L61.6502 79.4501H68.2967L60.2561 69.2372H53.6096ZM63.9846 69.2372L72.0252 79.4501H77.6504V78.0073L70.6311 69.2372H63.9846ZM74.3596 69.2372L77.6504 73.3548V69.2372H74.3596ZM52.0371 71.9282V79.4501H57.9217L52.0371 71.9282Z" fill="#050D69"/>
</svg>
