<svg width="83" height="83" viewBox="0 0 83 83" fill="none" xmlns="http://www.w3.org/2000/svg">
<g clip-path="url(#clip0_3033_10418)">
<path d="M65.0548 36.6C64.0773 35.325 62.8873 34.22 61.7823 33.115C58.9348 30.565 55.7048 28.7375 52.9848 26.06C46.6523 19.855 45.2498 9.6125 49.2873 1.75C45.2498 2.7275 41.7223 4.9375 38.7048 7.36C27.6973 16.2 23.3623 31.7975 28.5473 45.185C28.7173 45.61 28.8873 46.035 28.8873 46.5875C28.8873 47.5225 28.2498 48.3725 27.3998 48.7125C26.4223 49.1375 25.4023 48.8825 24.5948 48.2025C24.3536 48.0004 24.1519 47.7555 23.9998 47.48C19.1973 41.4025 18.4323 32.69 21.6623 25.72C14.5648 31.5 10.6973 41.275 11.2498 50.4975C11.5048 52.6225 11.7598 54.7475 12.4823 56.8725C13.0773 59.4225 14.2248 61.9725 15.4998 64.225C20.0898 71.5775 28.0373 76.8475 36.5798 77.91C45.6748 79.0575 55.4073 77.4 62.3773 71.11C70.1548 64.055 72.8748 52.75 68.8798 43.06L68.3273 41.955C67.4348 40 65.0548 36.6 65.0548 36.6ZM51.6248 63.375C50.4348 64.395 48.4798 65.5 46.9498 65.925C42.1898 67.625 37.4298 65.245 34.6248 62.44C39.6823 61.25 42.6998 57.51 43.5923 53.7275C44.3148 50.3275 42.9548 47.5225 42.4023 44.25C41.8923 41.105 41.9773 38.4275 43.1248 35.495C43.9323 37.11 44.7823 38.725 45.8023 40C49.0748 44.25 54.2173 46.12 55.3223 51.9C55.4923 52.495 55.5773 53.09 55.5773 53.7275C55.7048 57.2125 54.1748 61.0375 51.6248 63.375Z" fill="#050D69"/>
</g>
<defs>
<clipPath id="clip0_3033_10418">
<rect width="83" height="83" fill="white"/>
</clipPath>
</defs>
</svg>
