<svg width="49" height="49" viewBox="0 0 49 49" fill="none" xmlns="http://www.w3.org/2000/svg">
<path d="M39.8125 8.03906H9.1875C8.4768 8.03906 7.79521 8.32139 7.29267 8.82392C6.79014 9.32646 6.50781 10.0081 6.50781 10.7188V21.4375C6.50781 31.3791 11.3159 37.4008 15.3508 40.7006C19.7014 44.2608 24.0157 45.4647 24.1976 45.5145C24.3956 45.5685 24.6044 45.5685 24.8024 45.5145C24.9843 45.4647 29.2986 44.2608 33.6492 40.7006C37.6841 37.4008 42.4922 31.3791 42.4922 21.4375V10.7188C42.4922 10.0081 42.2099 9.32646 41.7073 8.82392C41.2048 8.32139 40.5232 8.03906 39.8125 8.03906ZM40.1953 21.4375C40.1953 28.665 37.5271 34.5278 32.2634 38.867C29.9543 40.763 27.3252 42.2318 24.5 43.2042C21.6744 42.2326 19.0453 40.7637 16.7366 38.867C11.4729 34.5278 8.80469 28.665 8.80469 21.4375V10.7188C8.80469 10.6172 8.84502 10.5199 8.91681 10.4481C8.9886 10.3763 9.08597 10.3359 9.1875 10.3359H39.8125C39.914 10.3359 40.0114 10.3763 40.0832 10.4481C40.155 10.5199 40.1953 10.6172 40.1953 10.7188V21.4375ZM32.9678 19.0947C33.1829 19.31 33.3037 19.6019 33.3037 19.9062C33.3037 20.2106 33.1829 20.5025 32.9678 20.7178L22.2491 31.4366C22.0337 31.6516 21.7418 31.7724 21.4375 31.7724C21.1332 31.7724 20.8413 31.6516 20.6259 31.4366L16.0322 26.8428C15.8293 26.6251 15.7189 26.3372 15.7241 26.0396C15.7294 25.7421 15.8499 25.4582 16.0603 25.2478C16.2707 25.0374 16.5546 24.9169 16.8521 24.9116C17.1497 24.9064 17.4376 25.0168 17.6553 25.2197L21.4375 29L31.3447 19.0947C31.56 18.8796 31.8519 18.7588 32.1562 18.7588C32.4606 18.7588 32.7525 18.8796 32.9678 19.0947Z" fill="white"/>
</svg>
