<svg width="46" height="46" viewBox="0 0 46 46" fill="none" xmlns="http://www.w3.org/2000/svg">
<g clip-path="url(#clip0_3069_10410)">
<path d="M33.9633 40.8887H10.9633C10.6244 40.8887 10.2994 41.0233 10.0598 41.2629C9.82017 41.5026 9.68555 41.8276 9.68555 42.1664C9.68555 42.5053 9.82017 42.8303 10.0598 43.07C10.2994 43.3096 10.6244 43.4442 10.9633 43.4442H33.9633C34.3022 43.4442 34.6272 43.3096 34.8669 43.07C35.1065 42.8303 35.2411 42.5053 35.2411 42.1664C35.2411 41.8276 35.1065 41.5026 34.8669 41.2629C34.6272 41.0233 34.3022 40.8887 33.9633 40.8887Z" fill="white"/>
<path d="M22.6805 2.55567C17.9361 2.55567 13.386 4.44038 10.0312 7.7952C6.67634 11.15 4.79163 15.7001 4.79163 20.4446C4.79163 21.0196 4.79163 21.5818 4.88107 22.144C5.21034 25.5943 6.53485 28.8747 8.6936 31.5863C10.8523 34.298 13.7523 36.3241 17.0411 37.4184C20.3298 38.5127 23.8656 38.6281 27.2186 37.7505C30.5717 36.8729 33.5976 35.0401 35.9285 32.4749C38.2594 29.9097 39.7949 26.7227 40.3484 23.3012C40.9019 19.8796 40.4494 16.371 39.0461 13.2018C37.6428 10.0326 35.3491 7.33925 32.4437 5.44927C29.5384 3.55928 26.1465 2.55401 22.6805 2.55567ZM22.6805 5.11122C26.7208 5.11473 30.5964 6.71273 33.465 9.55789V10.8357C28.4148 9.09665 22.9246 9.11917 17.8888 10.8996C17.4865 10.5075 16.9815 10.2373 16.4322 10.1201H16.1127C15.9594 9.58344 15.8188 9.04678 15.7038 8.49733C15.5888 7.94789 15.525 7.46233 15.4611 6.93844C17.6789 5.74038 20.1598 5.11247 22.6805 5.11122ZM18.8472 12.6118C23.4877 11.0578 28.5169 11.1164 33.12 12.7779C32.4974 16.0242 31.1378 19.0843 29.1461 21.7223C28.589 21.4864 27.9722 21.4298 27.3815 21.5603C26.7907 21.6908 26.2553 22.002 25.8494 22.4507C25.4022 22.1951 24.955 21.9396 24.5716 21.6457C21.9922 19.9246 19.838 17.6394 18.2722 14.9629C18.5253 14.6491 18.7095 14.2856 18.813 13.8959C18.9164 13.5063 18.9368 13.0992 18.8727 12.7012L18.8472 12.6118ZM13.7361 8.01178C13.7361 8.28011 13.8127 8.56122 13.8638 8.82955C13.9788 9.39178 14.1322 9.94122 14.2855 10.4907C13.7962 10.7804 13.4024 11.207 13.1526 11.7179C12.9029 12.2288 12.8081 12.8016 12.88 13.3657C10.8627 14.6825 9.06111 16.3031 7.53885 18.1701C7.84436 16.1484 8.55115 14.2081 9.61762 12.4636C10.6841 10.719 12.0887 9.20542 13.7488 8.01178H13.7361ZM13.7361 28.0857C13.2373 28.2531 12.7915 28.5492 12.4437 28.9441C12.096 29.3389 11.8586 29.8186 11.7555 30.3346H10.9377C8.87422 27.8734 7.64005 24.8237 7.41107 21.6201L7.55163 21.3773C9.15168 18.8963 11.2435 16.7698 13.6977 15.129C14.0657 15.5133 14.5307 15.791 15.0435 15.9327C15.5564 16.0744 16.098 16.0749 16.6111 15.934C18.3191 18.823 20.6556 21.2905 23.4472 23.1534C23.9711 23.4984 24.5077 23.8179 25.0444 24.1246C25.0004 24.6133 25.0795 25.1053 25.2744 25.5557C22.9368 27.4138 20.2393 28.7669 17.3522 29.5296C17.0174 28.9041 16.4712 28.4181 15.8111 28.1583C15.1511 27.8984 14.4201 27.8818 13.7488 28.1112L13.7361 28.0857ZM22.6805 35.7523C20.0817 35.7542 17.5257 35.0899 15.2566 33.8229L15.6144 33.7462C16.1229 33.5794 16.5772 33.2792 16.9301 32.8768C17.283 32.4745 17.5214 31.9849 17.6205 31.459C20.8882 30.6269 23.9387 29.1017 26.565 26.9868C27.1889 27.3514 27.9258 27.4723 28.6336 27.326C29.3414 27.1797 29.97 26.7767 30.3983 26.1946C32.2011 26.6634 34.0556 26.9038 35.9183 26.9101H36.5955C35.3628 29.561 33.3979 31.8042 30.9325 33.3753C28.4671 34.9465 25.604 35.7801 22.6805 35.7779V35.7523ZM30.9988 24.3801C30.9976 23.8446 30.8519 23.3193 30.5772 22.8596C32.7037 20.0818 34.1835 16.8646 34.9088 13.4423C35.5477 13.7405 36.1781 14.0727 36.8 14.439C38.2053 17.7598 38.3953 21.4697 37.3366 24.9168C35.2152 25.0808 33.0812 24.9127 31.0116 24.4184L30.9988 24.3801Z" fill="white"/>
</g>
<defs>
<clipPath id="clip0_3069_10410">
<rect width="46" height="46" fill="white"/>
</clipPath>
</defs>
</svg>
