<svg width="46" height="46" viewBox="0 0 46 46" fill="none" xmlns="http://www.w3.org/2000/svg">
<path d="M13.4013 27.7954C12.893 27.7954 12.4055 27.9973 12.046 28.3567C11.6866 28.7162 11.4847 29.2037 11.4847 29.712V33.1275C9.01392 30.334 7.65046 26.7331 7.65132 23.0037C7.64908 22.4399 7.68237 21.8766 7.75099 21.317C7.78756 21.0642 7.77322 20.8066 7.70881 20.5594C7.6444 20.3122 7.53122 20.0803 7.37592 19.8775C7.22063 19.6747 7.02635 19.5049 6.80451 19.3782C6.58267 19.2516 6.33774 19.1705 6.08413 19.1398C5.83051 19.1092 5.57333 19.1295 5.32769 19.1997C5.08205 19.2698 4.85291 19.3884 4.65375 19.5484C4.45459 19.7084 4.28941 19.9065 4.16794 20.1313C4.04647 20.356 3.97115 20.6028 3.94641 20.857C3.859 21.5692 3.81611 22.2862 3.81799 23.0037C3.81993 27.5773 5.46384 31.9983 8.45057 35.462H5.73466C5.22633 35.462 4.73882 35.664 4.37937 36.0234C4.01993 36.3828 3.81799 36.8704 3.81799 37.3787C3.81799 37.887 4.01993 38.3745 4.37937 38.734C4.73882 39.0934 5.22633 39.2954 5.73466 39.2954H13.4013C13.7011 39.2918 13.9957 39.2165 14.2605 39.0758C14.5252 38.9351 14.7525 38.733 14.9232 38.4865L14.9941 38.4041C15.0075 38.3849 15.0075 38.3619 15.019 38.3428C15.1095 38.1882 15.1779 38.0218 15.2222 37.8483C15.2505 37.7504 15.271 37.6504 15.2835 37.5493C15.2892 37.4918 15.318 37.44 15.318 37.3787V29.712C15.318 29.2037 15.1161 28.7162 14.7566 28.3567C14.3972 27.9973 13.9097 27.7954 13.4013 27.7954ZM16.2763 11.5037H12.8589C15.6529 9.03251 19.2546 7.66902 22.9847 7.67035C23.5485 7.66874 24.1118 7.70267 24.6713 7.77194C25.1764 7.83294 25.6849 7.69082 26.0852 7.37684C26.4854 7.06287 26.7445 6.60276 26.8055 6.09773C26.8665 5.5927 26.7244 5.08413 26.4104 4.68388C26.0965 4.28364 25.6364 4.02452 25.1313 3.96352C24.4191 3.87675 23.7021 3.8345 22.9847 3.83702C18.411 3.83895 13.9901 5.48287 10.5263 8.4696V5.75369C10.5263 5.24536 10.3244 4.75784 9.96495 4.3984C9.6055 4.03895 9.11799 3.83702 8.60966 3.83702C8.10133 3.83702 7.61382 4.03895 7.25437 4.3984C6.89493 4.75784 6.69299 5.24536 6.69299 5.75369V13.4204C6.70543 13.5471 6.73047 13.6723 6.76774 13.7941C6.81536 14.0302 6.90705 14.2552 7.03799 14.4573L7.06099 14.4899C7.18826 14.673 7.34652 14.8326 7.52866 14.9614C7.54974 14.9767 7.56124 14.9997 7.58232 15.015C7.60916 15.0342 7.63982 15.0399 7.66857 15.0553C7.77795 15.1203 7.89352 15.1742 8.01358 15.2163C8.17505 15.2723 8.34329 15.3064 8.51382 15.3179C8.54832 15.3179 8.57516 15.337 8.60966 15.337H16.2763C16.7847 15.337 17.2722 15.1351 17.6316 14.7756C17.9911 14.4162 18.193 13.9287 18.193 13.4204C18.193 12.912 17.9911 12.4245 17.6316 12.0651C17.2722 11.7056 16.7847 11.5037 16.2763 11.5037ZM39.1997 32.2114C39.1518 31.9759 39.0601 31.7516 38.9294 31.5501L38.9083 31.5175C38.7805 31.3342 38.6216 31.1746 38.4387 31.046C38.4177 31.0307 38.4081 31.0077 38.3851 30.9924C38.3659 30.9789 38.341 30.9789 38.3199 30.9655C38.0759 30.8318 37.8096 30.7435 37.5341 30.7049C37.4727 30.6991 37.421 30.6704 37.3597 30.6704H29.693C29.1847 30.6704 28.6971 30.8723 28.3377 31.2317C27.9783 31.5912 27.7763 32.0787 27.7763 32.587C27.7763 33.0954 27.9783 33.5829 28.3377 33.9423C28.6971 34.3018 29.1847 34.5037 29.693 34.5037H33.1085C30.3149 36.9744 26.7141 38.3379 22.9847 38.337C22.4208 38.338 21.8575 38.3034 21.298 38.2335C20.793 38.1725 20.2844 38.3146 19.8841 38.6286C19.4839 38.9426 19.2248 39.4027 19.1638 39.9077C19.1028 40.4128 19.2449 40.9213 19.5589 41.3216C19.8729 41.7218 20.333 41.9809 20.838 42.0419C21.5502 42.1293 22.2671 42.1722 22.9847 42.1704C27.5583 42.1684 31.9792 40.5245 35.443 37.5378V40.2537C35.443 40.762 35.6449 41.2495 36.0044 41.609C36.3638 41.9684 36.8513 42.1704 37.3597 42.1704C37.868 42.1704 38.3555 41.9684 38.7149 41.609C39.0744 41.2495 39.2763 40.762 39.2763 40.2537V32.587C39.2633 32.4602 39.2376 32.3331 39.1997 32.2114ZM40.2347 10.5454C40.743 10.5454 41.2305 10.3434 41.5899 9.98397C41.9494 9.62453 42.1513 9.13702 42.1513 8.62869C42.1513 8.12036 41.9494 7.63284 41.5899 7.2734C41.2305 6.91395 40.743 6.71202 40.2347 6.71202H32.568C32.4432 6.72483 32.3199 6.74987 32.2 6.78677L32.1866 6.78869C31.9546 6.83708 31.7337 6.92807 31.5349 7.05702L31.4966 7.08194C31.3141 7.20938 31.1552 7.36763 31.027 7.5496C31.0117 7.56877 30.9887 7.58027 30.9733 7.60135C30.9599 7.62052 30.9599 7.64544 30.9465 7.66652C30.8121 7.91231 30.7238 8.18057 30.6858 8.4581C30.6801 8.5156 30.6513 8.56735 30.6513 8.62869V16.2954C30.6513 16.8037 30.8533 17.2912 31.2127 17.6506C31.5721 18.0101 32.0597 18.212 32.568 18.212C33.0763 18.212 33.5638 18.0101 33.9233 17.6506C34.2827 17.2912 34.4847 16.8037 34.4847 16.2954V12.8779C36.9543 15.6729 38.3176 19.2739 38.318 23.0037C38.3196 23.5675 38.2857 24.1308 38.2164 24.6904C38.1553 25.1949 38.297 25.703 38.6104 26.103C38.9238 26.5031 39.3833 26.7622 39.8877 26.8236C39.9653 26.8328 40.0434 26.8373 40.1216 26.837C40.5895 26.8362 41.0409 26.6642 41.3908 26.3535C41.7407 26.0428 41.9648 25.6149 42.021 25.1504C42.109 24.4382 42.1526 23.7213 42.1513 23.0037C42.1494 18.43 40.5055 14.0091 37.5187 10.5454H40.2347Z" fill="white"/>
</svg>
