<svg width="165" height="161" viewBox="0 0 165 161" fill="none" xmlns="http://www.w3.org/2000/svg">
<circle cx="80" cy="80" r="80" fill="white"/>
<circle cx="80" cy="80" r="79" stroke="black" stroke-opacity="0.2" stroke-width="2"/>
<path d="M159 75C162.213 111.187 128.469 171.053 61 156.737" stroke="#050D69" stroke-width="2"/>
<circle cx="159" cy="75" r="6" fill="#050D69"/>
<circle cx="59" cy="155" r="6" fill="#050D69"/>
<path fill-rule="evenodd" clip-rule="evenodd" d="M48.3994 48.8545C48.3994 47.1637 49.0711 45.5422 50.2666 44.3467C51.4622 43.1511 53.0837 42.4795 54.7744 42.4795C56.4652 42.4795 58.0867 43.1511 59.2822 44.3467C60.4778 45.5422 61.1494 47.1637 61.1494 48.8545V67.9795H82.3994V48.8545C82.3994 47.1637 83.0711 45.5422 84.2666 44.3467C85.4622 43.1511 87.0837 42.4795 88.7744 42.4795C90.4652 42.4795 92.0867 43.1511 93.2822 44.3467C94.4778 45.5422 95.1494 47.1637 95.1494 48.8545V99.8545C95.1494 101.545 94.4778 103.167 93.2822 104.362C92.0867 105.558 90.4652 106.229 88.7744 106.229C87.0837 106.229 85.4622 105.558 84.2666 104.362C83.0711 103.167 82.3994 101.545 82.3994 99.8545V80.7295H61.1494V99.8545C61.1494 101.545 60.4778 103.167 59.2822 104.362C58.0867 105.558 56.4652 106.229 54.7744 106.229C53.0837 106.229 51.4622 105.558 50.2666 104.362C49.0711 103.167 48.3994 101.545 48.3994 99.8545V48.8545ZM54.7744 46.7295C54.2108 46.7295 53.6703 46.9534 53.2718 47.3519C52.8733 47.7504 52.6494 48.2909 52.6494 48.8545V99.8545C52.6494 100.418 52.8733 100.959 53.2718 101.357C53.6703 101.756 54.2108 101.979 54.7744 101.979C55.338 101.979 55.8785 101.756 56.277 101.357C56.6755 100.959 56.8994 100.418 56.8994 99.8545V76.4795H86.6494V99.8545C86.6494 100.418 86.8733 100.959 87.2718 101.357C87.6703 101.756 88.2108 101.979 88.7744 101.979C89.338 101.979 89.8785 101.756 90.277 101.357C90.6755 100.959 90.8994 100.418 90.8994 99.8545V48.8545C90.8994 48.2909 90.6755 47.7504 90.277 47.3519C89.8785 46.9534 89.338 46.7295 88.7744 46.7295C88.2108 46.7295 87.6703 46.9534 87.2718 47.3519C86.8733 47.7504 86.6494 48.2909 86.6494 48.8545V72.2295H56.8994V48.8545C56.8994 48.2909 56.6755 47.7504 56.277 47.3519C55.8785 46.9534 55.338 46.7295 54.7744 46.7295Z" fill="#050D69"/>
<path d="M100.943 110.871V108.141L107.963 101.511C108.518 101.008 108.925 100.558 109.185 100.159C109.445 99.7604 109.618 99.3964 109.705 99.0671C109.809 98.7378 109.861 98.4344 109.861 98.1571C109.861 97.4291 109.61 96.8744 109.107 96.4931C108.622 96.0944 107.902 95.8951 106.949 95.8951C106.186 95.8951 105.476 96.0424 104.817 96.3371C104.176 96.6318 103.63 97.0911 103.179 97.7151L100.111 95.7391C100.804 94.6991 101.775 93.8758 103.023 93.2691C104.271 92.6624 105.71 92.3591 107.339 92.3591C108.691 92.3591 109.87 92.5844 110.875 93.0351C111.898 93.4684 112.686 94.0838 113.241 94.8811C113.813 95.6784 114.099 96.6318 114.099 97.7411C114.099 98.3304 114.021 98.9198 113.865 99.5091C113.726 100.081 113.432 100.688 112.981 101.329C112.548 101.97 111.906 102.69 111.057 103.487L105.233 108.973L104.427 107.439H114.697V110.871H100.943Z" fill="#050D69"/>
</svg>
