<svg width="165" height="161" viewBox="0 0 165 161" fill="none" xmlns="http://www.w3.org/2000/svg">
<circle cx="80" cy="80" r="80" fill="white"/>
<circle cx="80" cy="80" r="79" stroke="black" stroke-opacity="0.2" stroke-width="2"/>
<path d="M159 75C162.213 111.187 128.469 171.053 61 156.737" stroke="#050D69" stroke-width="2"/>
<circle cx="159" cy="75" r="6" fill="#050D69"/>
<circle cx="59" cy="155" r="6" fill="#050D69"/>
<path d="M77.3047 98.3129C77.3047 98.9034 77.0701 99.4698 76.6525 99.8873C76.235 100.305 75.6686 100.539 75.0781 100.539H64.6875C64.097 100.539 63.5306 100.305 63.1131 99.8873C62.6955 99.4698 62.4609 98.9034 62.4609 98.3129C62.4609 97.7224 62.6955 97.156 63.1131 96.7385C63.5306 96.3209 64.097 96.0863 64.6875 96.0863H75.0781C75.6686 96.0863 76.235 96.3209 76.6525 96.7385C77.0701 97.156 77.3047 97.7224 77.3047 98.3129ZM100.312 96.0863H89.9219C89.3314 96.0863 88.765 96.3209 88.3475 96.7385C87.9299 97.156 87.6953 97.7224 87.6953 98.3129C87.6953 98.9034 87.9299 99.4698 88.3475 99.8873C88.765 100.305 89.3314 100.539 89.9219 100.539H100.312C100.903 100.539 101.469 100.305 101.887 99.8873C102.304 99.4698 102.539 98.9034 102.539 98.3129C102.539 97.7224 102.304 97.156 101.887 96.7385C101.469 96.3209 100.903 96.0863 100.312 96.0863ZM123.32 113.157C123.32 113.747 123.086 114.313 122.668 114.731C122.251 115.149 121.684 115.383 121.094 115.383H43.9062C43.3157 115.383 42.7494 115.149 42.3318 114.731C41.9143 114.313 41.6797 113.747 41.6797 113.157C41.6797 112.566 41.9143 112 42.3318 111.582C42.7494 111.165 43.3157 110.93 43.9062 110.93H47.6172V65.6566C47.6172 65.2431 47.7323 64.8378 47.9497 64.4861C48.1671 64.1343 48.4782 63.8501 48.848 63.6651C49.2178 63.4802 49.6319 63.4019 50.0437 63.4391C50.4555 63.4762 50.8489 63.6273 51.1797 63.8754L71.3672 79.016V65.6566C71.3672 65.2431 71.4823 64.8378 71.6997 64.4861C71.9171 64.1343 72.2282 63.8501 72.598 63.6651C72.9678 63.4802 73.3819 63.4019 73.7937 63.4391C74.2055 63.4762 74.5989 63.6273 74.9297 63.8754L90.293 75.409L94.7461 44.1406C94.9297 42.9062 95.5494 41.7783 96.4929 40.9614C97.4365 40.1445 98.6414 39.6925 99.8895 39.6875H106.614C107.862 39.6925 109.067 40.1445 110.01 40.9614C110.954 41.7783 111.573 42.9062 111.757 44.1406L117.323 83.1537C117.323 83.1537 117.346 83.3727 117.346 83.4691V110.93H121.057C121.352 110.925 121.646 110.979 121.92 111.089C122.195 111.198 122.444 111.362 122.655 111.569C122.866 111.776 123.033 112.023 123.147 112.296C123.262 112.569 123.32 112.861 123.32 113.157ZM94.375 78.4557L98.0859 81.2426H112.588L107.363 44.7715C107.338 44.5932 107.249 44.4301 107.112 44.3126C106.976 44.1952 106.801 44.1314 106.621 44.1332H99.9191C99.739 44.1314 99.5645 44.1952 99.4279 44.3126C99.2914 44.4301 99.2022 44.5932 99.177 44.7715L94.375 78.4557ZM52.0703 110.93H112.93V85.6957H97.3438C96.862 85.6957 96.3932 85.5395 96.0078 85.2504L90.6641 81.2426L75.8203 70.1098V83.4691C75.8203 83.8826 75.7052 84.288 75.4878 84.6397C75.2704 84.9915 74.9593 85.2757 74.5895 85.4606C74.2197 85.6456 73.8056 85.7238 73.3938 85.6867C72.982 85.6496 72.5886 85.4985 72.2578 85.2504L52.0703 70.1098V110.93Z" fill="#050D69"/>
</svg>
