<svg width="165" height="161" viewBox="0 0 165 161" fill="none" xmlns="http://www.w3.org/2000/svg">
<circle cx="80" cy="80" r="80" fill="white"/>
<circle cx="80" cy="80" r="79" stroke="black" stroke-opacity="0.2" stroke-width="2"/>
<path d="M159 75C162.213 111.187 128.469 171.053 61 156.737" stroke="#050D69" stroke-width="2"/>
<circle cx="159" cy="75" r="6" fill="#050D69"/>
<circle cx="59" cy="155" r="6" fill="#050D69"/>
<path d="M44.925 118.075C40.471 113.621 37.9688 107.58 37.9688 101.281C37.9688 94.9824 40.471 88.9415 44.925 84.4875C49.379 80.0335 55.4199 77.5312 61.7188 77.5312C68.0176 77.5312 74.0585 80.0335 78.5125 84.4875C82.9665 88.9415 85.4688 94.9824 85.4688 101.281C85.4688 107.58 82.9665 113.621 78.5125 118.075C74.0585 122.529 68.0176 125.031 61.7188 125.031C55.4199 125.031 49.379 122.529 44.925 118.075Z" stroke="#050D69" stroke-width="3" stroke-linecap="round" stroke-linejoin="round"/>
<path d="M49.8438 101.281C49.8438 98.1319 51.0949 95.1114 53.3219 92.8844C55.5489 90.6574 58.5693 89.4063 61.7187 89.4063M91.4062 65.6563C91.4062 70.3815 93.2833 74.9132 96.6246 78.2544C99.9658 81.5957 104.497 83.4728 109.223 83.4728C113.948 83.4728 118.48 81.5957 121.821 78.2544C125.162 74.9132 127.039 70.3815 127.039 65.6563C127.039 60.9311 125.162 56.3994 121.821 53.0582C118.48 49.7169 113.948 47.8398 109.223 47.8398C104.497 47.8398 99.9658 49.7169 96.6246 53.0582C93.2833 56.3994 91.4062 60.9311 91.4062 65.6563Z" stroke="#050D69" stroke-width="3" stroke-linecap="round" stroke-linejoin="round"/>
<path d="M103.281 65.6563C103.281 64.0815 103.907 62.5713 105.02 61.4578C106.134 60.3443 107.644 59.7188 109.219 59.7188M82.3456 89.5013L95.9465 77.5313M92.9421 58.4125L67.2565 47.5033M49.8438 44.875C49.8438 47.2371 50.7821 49.5024 52.4523 51.1727C54.1226 52.8429 56.3879 53.7813 58.75 53.7813C61.1121 53.7813 63.3774 52.8429 65.0477 51.1727C66.7179 49.5024 67.6562 47.2371 67.6562 44.875C67.6562 42.5129 66.7179 40.2476 65.0477 38.5773C63.3774 36.9071 61.1121 35.9688 58.75 35.9688C56.3879 35.9688 54.1226 36.9071 52.4523 38.5773C50.7821 40.2476 49.8438 42.5129 49.8438 44.875Z" stroke="#050D69" stroke-width="3" stroke-linecap="round" stroke-linejoin="round"/>
</svg>
