<svg width="165" height="161" viewBox="0 0 165 161" fill="none" xmlns="http://www.w3.org/2000/svg">
<circle cx="80" cy="80" r="80" fill="white"/>
<circle cx="80" cy="80" r="79" stroke="black" stroke-opacity="0.2" stroke-width="2"/>
<path d="M159 75C162.213 111.187 128.469 171.053 61 156.737" stroke="#050D69" stroke-width="2"/>
<circle cx="159" cy="75" r="6" fill="#050D69"/>
<circle cx="59" cy="155" r="6" fill="#050D69"/>
<path d="M89.8469 120.084C138.226 108.209 111.135 60.7087 78.2371 40.917C74.3658 54.7712 68.559 58.7295 56.9492 72.5837C41.575 90.9266 49.2106 112.167 70.4946 120.084C67.2685 116.125 58.9481 107.813 64.6877 96.3337C66.6669 92.3753 70.6252 88.417 68.646 80.5003C72.5173 82.4795 80.521 84.4587 82.5002 94.3545C85.7263 90.3962 89.071 82.0837 85.9756 72.5837C110.209 90.3962 100.313 108.209 89.8469 120.084Z" stroke="black" stroke-width="3" stroke-linecap="round" stroke-linejoin="round"/>
</svg>
