<svg width="165" height="161" viewBox="0 0 165 161" fill="none" xmlns="http://www.w3.org/2000/svg">
<circle cx="80" cy="80" r="80" fill="white"/>
<circle cx="80" cy="80" r="79" stroke="black" stroke-opacity="0.2" stroke-width="2"/>
<path d="M159 75C162.213 111.187 128.469 171.053 61 156.737" stroke="#050D69" stroke-width="2"/>
<circle cx="159" cy="75" r="6" fill="#050D69"/>
<circle cx="59" cy="155" r="6" fill="#050D69"/>
<path d="M103.281 35.9688H55.7812M94.375 53.7812H64.6875M40.9375 83.4687H52.8125M46.875 77.5312V89.4062M94.375 110.187C94.375 114.124 92.8111 117.9 90.0274 120.684C87.2436 123.467 83.4681 125.031 79.5312 125.031C75.5944 125.031 71.8189 123.467 69.0351 120.684C66.2514 117.9 64.6875 114.124 64.6875 110.187V35.9688H94.375V110.187ZM118.125 59.7187C119.7 59.7187 121.21 59.0932 122.323 57.9797C123.437 56.8662 124.062 55.356 124.062 53.7812C124.062 52.2065 123.437 50.6963 122.323 49.5828C121.21 48.4693 119.7 47.8437 118.125 47.8437C116.55 47.8437 115.04 48.4693 113.927 49.5828C112.813 50.6963 112.187 52.2065 112.187 53.7812C112.187 55.356 112.813 56.8662 113.927 57.9797C115.04 59.0932 116.55 59.7187 118.125 59.7187Z" stroke="#28406D" stroke-width="4" stroke-linecap="round" stroke-linejoin="round"/>
<path d="M82.9348 68.1902C83.2131 68.4686 83.5907 68.625 83.9844 68.625C84.3781 68.625 84.7556 68.4686 85.034 68.1902C85.3124 67.9119 85.4688 67.5343 85.4688 67.1406C85.4688 66.7469 85.3124 66.3694 85.034 66.091C84.7556 65.8126 84.3781 65.6562 83.9844 65.6562C83.5907 65.6562 83.2131 65.8126 82.9348 66.091C82.6564 66.3694 82.5 66.7469 82.5 67.1406C82.5 67.5343 82.6564 67.9119 82.9348 68.1902Z" stroke="#28406D" stroke-width="2.5"/>
<path d="M74.0285 86.0027C74.3069 86.2811 74.6844 86.4375 75.0781 86.4375C75.4718 86.4375 75.8494 86.2811 76.1277 86.0027C76.4061 85.7244 76.5625 85.3468 76.5625 84.9531C76.5625 84.5594 76.4061 84.1819 76.1277 83.9035C75.8494 83.6251 75.4718 83.4688 75.0781 83.4688C74.6844 83.4688 74.3069 83.6251 74.0285 83.9035C73.7501 84.1819 73.5938 84.5594 73.5938 84.9531C73.5938 85.3468 73.7501 85.7244 74.0285 86.0027Z" stroke="#28406D" stroke-width="2.5"/>
<path d="M79.966 103.815C80.2444 104.094 80.6219 104.25 81.0156 104.25C81.4093 104.25 81.7869 104.094 82.0652 103.815C82.3436 103.537 82.5 103.159 82.5 102.766C82.5 102.372 82.3436 101.994 82.0652 101.716C81.7869 101.438 81.4093 101.281 81.0156 101.281C80.6219 101.281 80.2444 101.438 79.966 101.716C79.6876 101.994 79.5312 102.372 79.5312 102.766C79.5312 103.159 79.6876 103.537 79.966 103.815Z" stroke="#28406D" stroke-width="2.5"/>
</svg>
