<svg width="165" height="161" viewBox="0 0 165 161" fill="none" xmlns="http://www.w3.org/2000/svg">
<circle cx="80" cy="80" r="80" fill="white"/>
<circle cx="80" cy="80" r="79" stroke="black" stroke-opacity="0.2" stroke-width="2"/>
<path d="M159 75C162.213 111.187 128.469 171.053 61 156.737" stroke="#050D69" stroke-width="2"/>
<circle cx="159" cy="75" r="6" fill="#050D69"/>
<circle cx="59" cy="155" r="6" fill="#050D69"/>
<path d="M46.75 48.667H78.0833M50.6667 48.667V68.2503C50.6667 74.4829 53.1426 80.4602 57.5497 84.8673C61.9568 89.2744 67.9341 91.7503 74.1667 91.7503H85.9167C86.9554 91.7503 87.9517 92.163 88.6862 92.8975C89.4207 93.632 89.8333 94.6282 89.8333 95.667V111.334M74.1667 48.667V64.3337C74.1667 65.3724 74.5793 66.3686 75.3138 67.1032C76.0484 67.8377 77.0446 68.2503 78.0833 68.2503H89.8333C96.0659 68.2503 102.043 70.7262 106.45 75.1333C110.857 79.5404 113.333 85.5177 113.333 91.7503V111.334M85.9167 111.334H117.25M82 68.2503V91.7503" stroke="#050D69" stroke-width="4" stroke-linecap="round" stroke-linejoin="round"/>
</svg>
