<svg width="165" height="161" viewBox="0 0 165 161" fill="none" xmlns="http://www.w3.org/2000/svg">
<circle cx="80" cy="80" r="80" fill="white"/>
<circle cx="80" cy="80" r="79" stroke="black" stroke-opacity="0.2" stroke-width="2"/>
<path d="M159 75C162.213 111.187 128.469 171.053 61 156.737" stroke="#050D69" stroke-width="2"/>
<circle cx="159" cy="75" r="6" fill="#050D69"/>
<circle cx="59" cy="155" r="6" fill="#050D69"/>
<g clip-path="url(#clip0_3368_12031)">
<mask id="mask0_3368_12031" style="mask-type:luminance" maskUnits="userSpaceOnUse" x="49" y="24" width="69" height="115">
<path d="M49 24H117.45V138.083H49V24Z" fill="white"/>
<path d="M80.3733 91.3097H72.5586C64.5214 91.3097 60.5057 91.3097 58.823 88.6744C57.1403 86.0448 58.8287 82.3998 62.2055 75.1099L77.7836 41.4554C79.9226 36.8465 80.9893 34.542 82.1073 34.7816C83.2253 35.0326 83.2253 37.5766 83.2253 42.6533V67.9227C83.2253 69.2689 83.2253 69.942 83.6417 70.3584C84.0581 70.7748 84.7312 70.7748 86.0774 70.7748H93.8921C101.929 70.7748 105.945 70.7748 107.628 73.4101C109.31 76.0397 107.622 79.6847 104.245 86.9746L88.6671 120.629C86.528 125.238 85.4614 127.542 84.3433 127.303C83.2253 127.046 83.2253 124.508 83.2253 119.431V94.1618C83.2253 92.8156 83.2253 92.1425 82.8089 91.7261C82.3925 91.3097 81.7194 91.3097 80.3733 91.3097Z" fill="black"/>
</mask>
<g mask="url(#mask0_3368_12031)">
<path d="M80.3733 91.3097H72.5586C64.5214 91.3097 60.5057 91.3097 58.823 88.6744C57.1403 86.0448 58.8287 82.3998 62.2055 75.1099L77.7836 41.4554C79.9226 36.8465 80.9893 34.542 82.1073 34.7816C83.2253 35.0326 83.2253 37.5766 83.2253 42.6533V67.9227C83.2253 69.2689 83.2253 69.942 83.6417 70.3584C84.0581 70.7748 84.7312 70.7748 86.0774 70.7748H93.8921C101.929 70.7748 105.945 70.7748 107.628 73.4101C109.31 76.0397 107.622 79.6847 104.245 86.9746L88.6671 120.629C86.528 125.238 85.4614 127.542 84.3433 127.303C83.2253 127.046 83.2253 124.508 83.2253 119.431V94.1618C83.2253 92.8156 83.2253 92.1425 82.8089 91.7261C82.3925 91.3097 81.7194 91.3097 80.3733 91.3097Z" stroke="#050D69" stroke-width="4"/>
</g>
</g>
<defs>
<clipPath id="clip0_3368_12031">
<rect width="95" height="95" fill="white" transform="translate(35 33)"/>
</clipPath>
</defs>
</svg>
