<svg width="34" height="34" viewBox="0 0 34 34" fill="none" xmlns="http://www.w3.org/2000/svg">
<g clip-path="url(#clip0_3046_10673)">
<path d="M16.5988 0.351562C7.63943 0.351562 0.351562 7.63943 0.351562 16.5988C0.351562 25.5582 7.63943 32.846 16.5988 32.846C25.5582 32.846 32.846 25.5582 32.846 16.5988C32.846 7.63943 25.5582 0.351562 16.5988 0.351562ZM17.4287 3.00737C19.5999 4.63837 21.2876 6.52997 22.4914 8.56265C20.8236 8.89693 19.1294 9.08202 17.4287 9.11573V3.00737ZM13.5157 3.02032C11.7121 4.60318 10.2879 6.34472 9.24221 8.18321C8.22015 7.93619 7.20827 7.64881 6.20894 7.32173C8.13655 5.16124 10.6913 3.65731 13.5157 3.02032ZM20.1818 3.14082C22.7989 3.83453 25.1562 5.27778 26.9641 7.29318C26.0484 7.63107 25.117 7.92488 24.1732 8.17358C23.1719 6.37062 21.839 4.66957 20.1818 3.14082ZM15.7689 3.32341V9.10278C14.1531 9.04435 12.543 8.85446 10.9363 8.54838C12.0809 6.67902 13.6864 4.91524 15.7689 3.32374M28.0437 8.66092C29.5005 10.7589 30.349 13.2188 30.4953 15.7689H26.3788C26.2785 13.7033 25.7892 11.6497 24.9251 9.68838C25.9813 9.39903 27.0221 9.05599 28.0433 8.66059M5.1204 8.70706C6.22406 9.08406 7.3429 9.41511 8.47402 9.69934C7.59992 11.659 7.13416 13.7056 7.06777 15.7689H2.70228C2.84739 13.238 3.68413 10.7955 5.12139 8.7074M10.1163 10.0725C11.989 10.4543 13.8736 10.6873 15.7695 10.752V15.7689H8.73063C8.79769 13.8348 9.24885 11.9146 10.1156 10.0721M23.2864 10.0897C24.1327 11.9256 24.6077 13.8447 24.7106 15.7689H17.4287V10.764C19.3708 10.7275 21.3235 10.5117 23.2864 10.0897ZM2.70195 17.4287H7.09997C7.25268 19.5733 7.83164 21.7062 8.81363 23.7559C7.6221 24.0207 6.44372 24.3415 5.2824 24.7173C3.74808 22.5819 2.85318 20.0539 2.70228 17.4287M8.76416 17.4287H15.7689V22.8921C13.9759 22.9409 12.2167 23.1238 10.5004 23.4232C9.50779 21.4705 8.92384 19.4471 8.7635 17.4287M17.4284 17.4287H24.7143C24.5964 19.485 24.051 21.5247 23.0637 23.4518C21.2036 23.1121 19.3192 22.923 17.4287 22.8861L17.4284 17.4287ZM26.3755 17.4287H30.4953C30.3446 20.0474 29.4536 22.5695 27.9258 24.7017C26.8751 24.3519 25.8089 24.0506 24.7305 23.7987C25.7119 21.759 26.261 19.6032 26.3755 17.4287ZM17.4287 24.543C18.9887 24.5752 20.5716 24.7159 22.1717 24.9799C21.0031 26.7506 19.4262 28.3939 17.4287 29.828V24.543ZM15.7689 24.5486V29.9396C13.9596 28.3969 12.4903 26.7171 11.3742 24.9573C12.8288 24.7276 14.2967 24.5909 15.7689 24.5486ZM9.63195 25.2773C10.6534 27.0076 11.9724 28.6598 13.5725 30.1906C10.8283 29.5836 8.33312 28.1577 6.41709 26.1016C7.47578 25.7786 8.54849 25.5038 9.63195 25.2773ZM23.9076 25.3145C24.882 25.5283 25.8467 25.7846 26.7988 26.0827C24.8946 28.1334 22.4149 29.5605 19.6852 30.1766C21.4344 28.7139 22.8413 27.07 23.9076 25.3145Z" fill="white"/>
</g>
<defs>
<clipPath id="clip0_3046_10673">
<rect width="33.1976" height="33.1976" fill="white"/>
</clipPath>
</defs>
</svg>
