<svg width="48" height="48" viewBox="0 0 48 48" fill="none" xmlns="http://www.w3.org/2000/svg">
<path d="M24.0001 15.3747C22.2942 15.3747 20.6267 15.8806 19.2083 16.8283C17.7899 17.776 16.6844 19.1231 16.0316 20.6991C15.3788 22.2751 15.208 24.0093 15.5408 25.6824C15.8736 27.3555 16.695 28.8923 17.9013 30.0985C19.1075 31.3048 20.6443 32.1262 22.3174 32.459C23.9905 32.7918 25.7247 32.621 27.3007 31.9682C28.8767 31.3154 30.2238 30.2099 31.1715 28.7915C32.1192 27.3732 32.6251 25.7056 32.6251 23.9997C32.6221 21.7132 31.7124 19.5211 30.0956 17.9042C28.4787 16.2874 26.2866 15.3777 24.0001 15.3747ZM24.0001 30.3747C22.7392 30.3747 21.5067 30.0009 20.4583 29.3004C19.4099 28.5999 18.5928 27.6042 18.1103 26.4394C17.6278 25.2745 17.5016 23.9927 17.7476 22.756C17.9935 21.5194 18.6007 20.3835 19.4923 19.4919C20.3838 18.6004 21.5197 17.9932 22.7564 17.7472C23.993 17.5013 25.2748 17.6275 26.4397 18.11C27.6046 18.5925 28.6002 19.4096 29.3007 20.458C30.0012 21.5063 30.3751 22.7389 30.3751 23.9997C30.3751 25.6905 29.7034 27.312 28.5079 28.5076C27.3123 29.7031 25.6908 30.3747 24.0001 30.3747ZM40.1251 24.5322C40.1363 24.1779 40.1363 23.8216 40.1251 23.4672L42.9995 19.8747C43.1093 19.7372 43.1854 19.5758 43.2215 19.4036C43.2577 19.2313 43.2529 19.053 43.2076 18.8829C42.7579 17.188 42.0845 15.5605 41.2051 14.0435C41.1177 13.8895 40.9953 13.7583 40.8477 13.6606C40.7001 13.5629 40.5315 13.5013 40.3557 13.481L35.7713 12.9729C35.5301 12.7141 35.2801 12.4641 35.0213 12.2229L34.5113 7.63662C34.491 7.46077 34.4295 7.2922 34.3317 7.14461C34.234 6.99703 34.1028 6.87458 33.9488 6.78725C32.4335 5.91051 30.8088 5.23842 29.1169 4.7885C28.9464 4.74394 28.7678 4.74007 28.5955 4.7772C28.4233 4.81433 28.2621 4.89141 28.1251 5.00225L24.5251 7.88412C24.1702 7.87292 23.815 7.87292 23.4601 7.88412L19.8751 5.00037C19.7376 4.8905 19.5762 4.81444 19.4039 4.77829C19.2316 4.74214 19.0533 4.74692 18.8832 4.79225C17.1883 5.24188 15.5609 5.91531 14.0438 6.79475C13.8898 6.88209 13.7587 7.00453 13.6609 7.15211C13.5632 7.2997 13.5016 7.46827 13.4813 7.64412L12.9807 12.2285C12.7219 12.471 12.4719 12.721 12.2307 12.9785L7.64257 13.4997C7.46672 13.5201 7.29815 13.5816 7.15057 13.6793C7.00298 13.7771 6.88054 13.9083 6.7932 14.0622C5.91647 15.5775 5.24437 17.2023 4.79445 18.8941C4.75097 19.0625 4.74713 19.2387 4.78325 19.4089C4.81936 19.579 4.89443 19.7385 5.00257 19.8747L7.88445 23.4747C7.87324 23.8297 7.87324 24.1848 7.88445 24.5397L5.0007 28.1341C4.89083 28.2716 4.81476 28.433 4.77862 28.6053C4.74247 28.7776 4.74725 28.9559 4.79257 29.126C5.24299 30.8177 5.9164 32.4419 6.79507 33.956C6.88241 34.11 7.00485 34.2412 7.15244 34.3389C7.30003 34.4366 7.4686 34.4982 7.64445 34.5185L12.2288 35.0266C12.4713 35.2854 12.7213 35.5354 12.9788 35.7766L13.5001 40.3572C13.5204 40.5331 13.5819 40.7017 13.6797 40.8493C13.7774 40.9968 13.9086 41.1193 14.0626 41.2066C15.5779 42.0834 17.2026 42.7554 18.8944 43.2054C19.0645 43.2507 19.2429 43.2555 19.4151 43.2193C19.5874 43.1832 19.7488 43.1071 19.8863 42.9972L23.4676 40.1247C23.8219 40.136 24.1782 40.136 24.5326 40.1247L28.1344 43.0085C28.3341 43.1678 28.5821 43.2545 28.8376 43.2541C28.935 43.2538 29.032 43.2412 29.1263 43.2166C30.818 42.7662 32.4422 42.0928 33.9563 41.2141C34.1103 41.1268 34.2415 41.0043 34.3392 40.8568C34.437 40.7092 34.4985 40.5406 34.5188 40.3647L35.0269 35.7804C35.2857 35.5391 35.5357 35.2891 35.7769 35.0304L40.3632 34.5204C40.539 34.5 40.7076 34.4385 40.8552 34.3408C41.0028 34.243 41.1252 34.1118 41.2126 33.9579C42.0897 32.4428 42.7618 30.818 43.2113 29.126C43.2566 28.9559 43.2614 28.7776 43.2253 28.6053C43.1891 28.433 43.1131 28.2716 43.0032 28.1341L40.1251 24.5322ZM39.5438 32.3379L35.1113 32.831C34.8344 32.8629 34.5791 32.9966 34.3951 33.206C34.0245 33.6235 33.6295 34.0186 33.2119 34.3891C33.0025 34.5732 32.8689 34.8284 32.8369 35.1054L32.3438 39.536C31.306 40.0894 30.2156 40.5379 29.0888 40.8747L25.6069 38.0885C25.4073 37.9292 25.1593 37.8425 24.9038 37.8429H24.8363C24.2793 37.8748 23.7209 37.8748 23.1638 37.8429C22.8856 37.8259 22.611 37.9127 22.3932 38.0866L18.9132 40.8747C17.7873 40.5362 16.6981 40.0858 15.6619 39.5304L15.1688 35.1016C15.1369 34.8247 15.0033 34.5694 14.7938 34.3854C14.3763 34.0148 13.9812 33.6198 13.6107 33.2022C13.4267 32.9928 13.1714 32.8592 12.8944 32.8272L8.46382 32.3341C7.911 31.2993 7.46254 30.2121 7.12507 29.0885L9.91132 25.6066C10.0852 25.3888 10.1721 25.1142 10.1551 24.836C10.1232 24.279 10.1232 23.7205 10.1551 23.1635C10.1721 22.8853 10.0852 22.6107 9.91132 22.3929L7.12507 18.9129C7.46364 17.787 7.91401 16.6978 8.46945 15.6616L12.8982 15.1685C13.1752 15.1366 13.4304 15.0029 13.6144 14.7935C13.985 14.376 14.3801 13.9809 14.7976 13.6104C15.007 13.4263 15.1406 13.1711 15.1726 12.8941L15.6657 8.4635C16.7005 7.91067 17.7877 7.46221 18.9113 7.12475L22.3932 9.911C22.611 10.0849 22.8856 10.1718 23.1638 10.1547C23.7209 10.1228 24.2793 10.1228 24.8363 10.1547C25.1145 10.1718 25.3891 10.0849 25.6069 9.911L29.0869 7.12475C30.2128 7.46331 31.302 7.91368 32.3382 8.46912L32.8313 12.9016C32.8633 13.1786 32.9969 13.4338 33.2063 13.6179C33.6238 13.9884 34.0189 14.3835 34.3895 14.801C34.5735 15.0104 34.8287 15.1441 35.1057 15.176L39.5363 15.6691C40.0889 16.7027 40.5374 17.7887 40.8751 18.911L38.0888 22.3929C37.9149 22.6107 37.8281 22.8853 37.8451 23.1635C37.877 23.7205 37.877 24.279 37.8451 24.836C37.8281 25.1142 37.9149 25.3888 38.0888 25.6066L40.8751 29.0866C40.5377 30.2124 40.0886 31.3015 39.5345 32.3379H39.5438Z" fill="white"/>
</svg>
