<svg width="46" height="46" viewBox="0 0 46 46" fill="none" xmlns="http://www.w3.org/2000/svg">
<path d="M20.125 23.8481L16.4019 20.125L14.375 22.1519L20.125 27.9019L31.625 16.4019L29.5981 14.375L20.125 23.8481Z" fill="white"/>
<path d="M23 43.125L14.122 38.3913C11.5908 37.0451 9.47415 35.0348 7.99917 32.5765C6.5242 30.1181 5.74665 27.3044 5.75001 24.4375V5.75C5.75001 4.9875 6.05291 4.25623 6.59208 3.71707C7.13125 3.1779 7.86251 2.875 8.62501 2.875H37.375C38.1375 2.875 38.8688 3.1779 39.4079 3.71707C39.9471 4.25623 40.25 4.9875 40.25 5.75V24.4375C40.2534 27.3044 39.4758 30.1181 38.0008 32.5765C36.5259 35.0348 34.4092 37.0451 31.878 38.3913L23 43.125ZM8.62501 5.75V24.4375C8.62341 26.7831 9.26021 29.0848 10.4671 31.096C11.6741 33.1072 13.4056 34.7521 15.4761 35.8541L23 39.8662L30.5239 35.8556C32.5946 34.7534 34.3263 33.1083 35.5333 31.0969C36.7402 29.0854 37.3769 26.7833 37.375 24.4375V5.75H8.62501Z" fill="white"/>
</svg>
