<svg width="47" height="47" viewBox="0 0 47 47" fill="none" xmlns="http://www.w3.org/2000/svg">
<path fill-rule="evenodd" clip-rule="evenodd" d="M16.1523 11.7503C15.3494 11.7503 14.6836 12.4162 14.6836 13.2191V16.4307L11.7461 17.7624V13.2191C11.7461 10.7907 13.724 8.81283 16.1523 8.81283H17.6211V8.32324C17.6211 5.89491 19.599 3.91699 22.0273 3.91699H24.9648C27.3932 3.91699 29.3711 5.89491 29.3711 8.32324V8.81283H30.8398C33.2682 8.81283 35.2461 10.7907 35.2461 13.2191V17.7624L32.3086 16.4307V13.2191C32.3086 12.4162 31.6428 11.7503 30.8398 11.7503H16.1523ZM22.0273 6.85449C21.2244 6.85449 20.5586 7.52033 20.5586 8.32324V8.81283H26.4336V8.32324C26.4336 7.52033 25.7678 6.85449 24.9648 6.85449H22.0273Z" fill="white"/>
<path d="M10.5319 34.6629C11.3152 34.7021 12.079 35.0154 12.6665 35.4658C13.0777 35.7792 13.5673 36.0925 14.1156 36.3862C14.0961 36.3471 14.0797 36.3079 14.0667 36.2688C14.0536 36.2296 14.0373 36.1904 14.0177 36.1512L10.9431 25.5958C10.843 25.2499 10.8735 24.8793 11.0287 24.5543C11.184 24.2294 11.4532 23.9728 11.7852 23.8333L22.9281 19.0746C23.3002 18.9179 23.7115 18.9179 24.0836 19.0746L35.2265 23.8333C35.9119 24.1271 36.2644 24.8712 36.0686 25.5958L32.994 36.1512C32.994 36.1512 32.9352 36.3079 32.8961 36.3862C33.4444 36.0925 33.934 35.7792 34.3452 35.4658C34.9327 35.0154 35.6965 34.7217 36.4798 34.6629L38.869 26.3987C39.4956 24.2642 38.4186 21.9925 36.3623 21.1112L25.2194 16.3525C24.1227 15.8825 22.8694 15.8825 21.7531 16.3525L10.6102 21.1112C8.55397 21.9925 7.47689 24.2446 8.10355 26.3987L10.4927 34.6629H10.5319ZM42.2177 39.7937L36.8715 37.3263C36.5956 37.2002 36.2875 37.1627 35.9895 37.2188C35.6914 37.2749 35.418 37.4219 35.2069 37.6396C35.1873 37.6592 32.7198 40.1267 29.8802 40.1267C29.5081 40.1267 29.1752 40.0679 28.8423 40.0092C26.4727 39.5196 24.5927 37.6396 24.5731 37.62C24.4355 37.4786 24.2712 37.3659 24.0896 37.2886C23.9081 37.2113 23.713 37.1708 23.5156 37.1696C23.124 37.1696 22.7519 37.3263 22.4581 37.6004C22.4386 37.62 20.5586 39.5 18.189 39.9896L17.8443 40.0366C17.6019 40.0754 17.3573 40.0989 17.1119 40.1071C14.2723 40.1071 11.8048 37.6396 11.7852 37.62C11.5741 37.4023 11.3007 37.2553 11.0026 37.1992C10.7046 37.1431 10.3965 37.1806 10.1206 37.3067L4.77439 39.7742C4.03022 40.1071 3.71689 40.9883 4.0498 41.7129C4.38272 42.4571 5.26397 42.7704 6.00814 42.4375L10.4731 40.3813C11.6873 41.38 14.1744 43.0446 17.1119 43.0446C19.8536 43.0446 22.2036 41.5758 23.4961 40.5771C24.7886 41.5758 27.1386 43.0446 29.8802 43.0446C32.8177 43.0446 35.3048 41.3604 36.519 40.3813L40.984 42.4375C41.7086 42.7704 42.5898 42.4375 42.9423 41.7129C43.2752 40.9687 42.9423 40.1071 42.2177 39.7742V39.7937Z" fill="white"/>
</svg>
