<svg width="43" height="43" viewBox="0 0 43 43" fill="none" xmlns="http://www.w3.org/2000/svg">
<path d="M7.16675 7.16634C7.16675 6.21598 7.54428 5.30455 8.21628 4.63254C8.88829 3.96054 9.79972 3.58301 10.7501 3.58301H25.0834C25.5586 3.58311 26.0142 3.77194 26.3501 4.10797L35.3085 13.0663C35.6445 13.4022 35.8333 13.8579 35.8334 14.333V35.833C35.8334 36.7834 35.4559 37.6948 34.7839 38.3668C34.1119 39.0388 33.2004 39.4163 32.2501 39.4163H10.7501C9.79972 39.4163 8.88829 39.0388 8.21628 38.3668C7.54428 37.6948 7.16675 36.7834 7.16675 35.833V7.16634ZM31.5083 14.333L25.0834 7.90809V14.333H31.5083ZM21.5001 7.16634H10.7501V35.833H32.2501V17.9163H23.2917C22.8166 17.9163 22.3609 17.7276 22.0248 17.3916C21.6888 17.0556 21.5001 16.5999 21.5001 16.1247V7.16634ZM14.3334 23.2913C14.3334 22.8162 14.5222 22.3604 14.8582 22.0244C15.1942 21.6884 15.6499 21.4997 16.1251 21.4997H26.8751C27.3503 21.4997 27.806 21.6884 28.142 22.0244C28.478 22.3604 28.6667 22.8162 28.6667 23.2913C28.6667 23.7665 28.478 24.2222 28.142 24.5582C27.806 24.8942 27.3503 25.083 26.8751 25.083H16.1251C15.6499 25.083 15.1942 24.8942 14.8582 24.5582C14.5222 24.2222 14.3334 23.7665 14.3334 23.2913ZM14.3334 30.458C14.3334 29.9828 14.5222 29.5271 14.8582 29.1911C15.1942 28.8551 15.6499 28.6663 16.1251 28.6663H26.8751C27.3503 28.6663 27.806 28.8551 28.142 29.1911C28.478 29.5271 28.6667 29.9828 28.6667 30.458C28.6667 30.9332 28.478 31.3889 28.142 31.7249C27.806 32.0609 27.3503 32.2497 26.8751 32.2497H16.1251C15.6499 32.2497 15.1942 32.0609 14.8582 31.7249C14.5222 31.3889 14.3334 30.9332 14.3334 30.458Z" fill="white"/>
</svg>
