<svg width="46" height="46" viewBox="0 0 46 46" fill="none" xmlns="http://www.w3.org/2000/svg">
<path d="M20.4844 31.6253C20.4844 31.9113 20.3708 32.1855 20.1686 32.3877C19.9664 32.5899 19.6922 32.7034 19.4062 32.7034H14.375C14.0891 32.7034 13.8148 32.5899 13.6127 32.3877C13.4105 32.1855 13.2969 31.9113 13.2969 31.6253C13.2969 31.3394 13.4105 31.0652 13.6127 30.863C13.8148 30.6608 14.0891 30.5472 14.375 30.5472H19.4062C19.6922 30.5472 19.9664 30.6608 20.1686 30.863C20.3708 31.0652 20.4844 31.3394 20.4844 31.6253ZM31.625 30.5472H26.5938C26.3078 30.5472 26.0336 30.6608 25.8314 30.863C25.6292 31.0652 25.5156 31.3394 25.5156 31.6253C25.5156 31.9113 25.6292 32.1855 25.8314 32.3877C26.0336 32.5899 26.3078 32.7034 26.5938 32.7034H31.625C31.9109 32.7034 32.1852 32.5899 32.3874 32.3877C32.5895 32.1855 32.7031 31.9113 32.7031 31.6253C32.7031 31.3394 32.5895 31.0652 32.3874 30.863C32.1852 30.6608 31.9109 30.5472 31.625 30.5472ZM42.7656 38.8128C42.7656 39.0988 42.652 39.373 42.4499 39.5752C42.2477 39.7774 41.9734 39.8909 41.6875 39.8909H4.3125C4.02656 39.8909 3.75234 39.7774 3.55015 39.5752C3.34796 39.373 3.23438 39.0988 3.23438 38.8128C3.23438 38.5269 3.34796 38.2527 3.55015 38.0505C3.75234 37.8483 4.02656 37.7347 4.3125 37.7347H6.10938V15.8128C6.10938 15.6126 6.16513 15.4163 6.27039 15.246C6.37565 15.0757 6.52627 14.9381 6.70535 14.8485C6.88443 14.759 7.08491 14.7211 7.28432 14.739C7.48373 14.757 7.6742 14.8302 7.83437 14.9503L17.6094 22.2816V15.8128C17.6094 15.6126 17.6651 15.4163 17.7704 15.246C17.8757 15.0757 18.0263 14.9381 18.2053 14.8485C18.3844 14.759 18.5849 14.7211 18.7843 14.739C18.9837 14.757 19.1742 14.8302 19.3344 14.9503L26.7734 20.535L28.9297 5.39453C29.0186 4.79679 29.3187 4.25067 29.7755 3.85511C30.2324 3.45955 30.8158 3.24073 31.4202 3.23828H34.6761C35.2804 3.24073 35.8638 3.45955 36.3207 3.85511C36.7776 4.25067 37.0777 4.79679 37.1666 5.39453L39.8619 24.2851C39.8619 24.2851 39.8727 24.3911 39.8727 24.4378V37.7347H41.6695C41.8126 37.7323 41.9547 37.7584 42.0876 37.8115C42.2205 37.8647 42.3415 37.9437 42.4435 38.044C42.5455 38.1444 42.6266 38.2641 42.6819 38.396C42.7372 38.528 42.7656 38.6697 42.7656 38.8128ZM28.75 22.0102L30.5469 23.3597H37.5691L35.0391 5.7C35.0269 5.61365 34.9837 5.53469 34.9176 5.47782C34.8514 5.42096 34.7669 5.39008 34.6797 5.39094H31.4345C31.3473 5.39008 31.2628 5.42096 31.1967 5.47782C31.1305 5.53469 31.0874 5.61365 31.0752 5.7L28.75 22.0102ZM8.26562 37.7347H37.7344V25.5159H30.1875C29.9542 25.5159 29.7272 25.4403 29.5406 25.3003L26.9531 23.3597L19.7656 17.9691V24.4378C19.7656 24.638 19.7099 24.8343 19.6046 25.0046C19.4993 25.1749 19.3487 25.3126 19.1697 25.4021C18.9906 25.4917 18.7901 25.5296 18.5907 25.5116C18.3913 25.4936 18.2008 25.4204 18.0406 25.3003L8.26562 17.9691V37.7347Z" fill="white"/>
</svg>
