<svg width="83" height="83" viewBox="0 0 83 83" fill="none" xmlns="http://www.w3.org/2000/svg">
<path d="M49.4715 6.03825C51.6826 6.22804 53.7527 7.20351 55.3067 8.78794C56.8607 10.3724 57.7958 12.461 57.9426 14.6754C58.3559 20.4163 58.7917 29.3491 58.7917 41.5C58.7917 56.3795 58.4649 67.1539 58.2314 72.9397C58.1768 74.2553 57.6139 75.4984 56.6611 76.4073C55.7084 77.3161 54.4402 77.8199 53.1235 77.8125H10.873C9.55233 77.8181 8.28097 77.3112 7.32638 76.3985C6.37179 75.4859 5.80838 74.2385 5.75467 72.919C5.52123 66.9983 5.1875 55.9956 5.1875 41.5C5.1875 29.6414 5.63363 20.6082 6.05208 14.755C6.19828 12.522 7.13864 10.415 8.70311 8.81503C10.2676 7.21503 12.3529 6.22762 14.5821 6.03133C19.1903 5.60596 25.3997 5.1875 31.9896 5.1875C38.614 5.1875 44.8546 5.60942 49.4715 6.03825Z" stroke="white" stroke-width="4" stroke-linecap="round" stroke-linejoin="round"/>
<path d="M53.1238 77.8125H72.2657C73.5895 77.8185 74.8642 77.3108 75.8214 76.3962C76.7785 75.4816 77.3437 74.2314 77.3978 72.9086C77.5811 68.2606 77.8128 60.8044 77.8128 52.7396C77.8128 46.5786 77.5431 41.0245 77.2508 36.8278C76.9258 32.1245 73.2807 28.4275 68.5756 28.1007C65.2515 27.8693 61.9215 27.7303 58.5897 27.684M40.4905 77.8125L40.5009 77.6309C40.5752 75.7289 40.6357 73.002 40.6357 69.1667C40.6357 65.3314 40.5752 62.6045 40.5009 60.7024C40.3988 58.1294 38.9619 55.9541 36.4114 55.6014C34.9453 55.4126 33.4681 55.3231 31.9899 55.3333C30.5117 55.3231 29.0345 55.4126 27.5684 55.6014C25.0179 55.9541 23.581 58.1294 23.479 60.7024C23.4046 62.6045 23.3441 65.3314 23.3441 69.1667C23.3357 72.0493 23.3842 74.9318 23.4893 77.8125M22.4795 20.75V24.2083M22.4795 39.7708V43.2292M41.5003 20.75V24.2083M41.5003 39.7708V43.2292" stroke="white" stroke-width="4" stroke-linecap="round" stroke-linejoin="round"/>
</svg>
