<svg width="83" height="83" viewBox="0 0 83 83" fill="none" xmlns="http://www.w3.org/2000/svg">
<g clip-path="url(#clip0_3270_11238)">
<path d="M61.2821 73.7773H19.7821C19.1706 73.7773 18.5842 74.0202 18.1518 74.4526C17.7195 74.885 17.4766 75.4714 17.4766 76.0829C17.4766 76.6944 17.7195 77.2808 18.1518 77.7132C18.5842 78.1456 19.1706 78.3885 19.7821 78.3885H61.2821C61.8936 78.3885 62.48 78.1456 62.9124 77.7132C63.3448 77.2808 63.5877 76.6944 63.5877 76.0829C63.5877 75.4714 63.3448 74.885 62.9124 74.4526C62.48 74.0202 61.8936 73.7773 61.2821 73.7773Z" fill="white"/>
<path d="M40.9233 4.61133C32.3627 4.61133 24.1527 8.01202 18.0995 14.0653C12.0462 20.1185 8.64551 28.3285 8.64551 36.8891C8.64551 37.9266 8.64551 38.9411 8.8069 39.9555C9.40102 46.1811 11.7909 52.1 15.686 56.9928C19.5811 61.8855 24.8137 65.5414 30.7477 67.5159C36.6817 69.4904 43.0616 69.6985 49.1116 68.115C55.1617 66.5315 60.6215 63.2245 64.8272 58.5961C69.033 53.9676 71.8036 48.217 72.8023 42.0434C73.8009 35.8698 72.9846 29.539 70.4526 23.8206C67.9205 18.1022 63.7818 13.2426 58.5395 9.83239C53.2972 6.4222 47.1772 4.60835 40.9233 4.61133ZM40.9233 9.22244C48.2133 9.22878 55.2063 12.1121 60.3822 17.2458V19.5513C51.2699 16.4135 41.3636 16.4542 32.2775 19.6666C31.5516 18.9593 30.6404 18.4717 29.6491 18.2602H29.0727C28.7961 17.2919 28.5425 16.3236 28.335 15.3322C28.1275 14.3408 28.0122 13.4647 27.8969 12.5194C31.8986 10.3577 36.375 9.2247 40.9233 9.22244ZM34.0066 22.7561C42.3797 19.9522 51.4542 20.0578 59.7597 23.0558C58.6363 28.9133 56.1832 34.4347 52.5894 39.1947C51.5842 38.769 50.4714 38.6668 49.4055 38.9023C48.3395 39.1378 47.3734 39.6993 46.6411 40.5088C45.8341 40.0477 45.0272 39.5866 44.3355 39.0563C39.6813 35.951 35.7944 31.8276 32.9691 26.9983C33.4258 26.4321 33.7582 25.7761 33.9449 25.0731C34.1316 24.3701 34.1683 23.6356 34.0527 22.9174L34.0066 22.7561ZM24.7844 14.4561C24.7844 14.9402 24.9227 15.4474 25.015 15.9316C25.2225 16.9461 25.4991 17.9374 25.7758 18.9288C24.8929 19.4516 24.1823 20.2214 23.7317 21.1432C23.281 22.065 23.11 23.0985 23.2397 24.1163C19.5999 26.4923 16.3491 29.4164 13.6025 32.7852C14.1537 29.1373 15.429 25.6364 17.3533 22.4887C19.2776 19.3409 21.812 16.6098 24.8075 14.4561H24.7844ZM24.7844 50.6763C23.8844 50.9785 23.08 51.5127 22.4525 52.2252C21.8251 52.9377 21.3967 53.8031 21.2108 54.7341H19.7352C16.0119 50.2933 13.7851 44.7907 13.3719 39.0102L13.6255 38.5722C16.5126 34.0956 20.2869 30.2585 24.7152 27.298C25.3792 27.9914 26.2182 28.4925 27.1435 28.7481C28.0689 29.0038 29.0461 29.0046 29.9719 28.7505C33.0538 33.9633 37.2696 38.4154 42.3066 41.7769C43.2519 42.3994 44.2202 42.9758 45.1886 43.5291C45.1091 44.411 45.2518 45.2987 45.6036 46.1113C41.3858 49.4641 36.5184 51.9056 31.3091 53.2816C30.7051 52.1531 29.7196 51.2761 28.5285 50.8073C27.3375 50.3385 26.0186 50.3084 24.8075 50.7224L24.7844 50.6763ZM40.9233 64.5097C36.2341 64.513 31.6222 63.3144 27.528 61.0283L28.1736 60.8899C29.091 60.5889 29.9109 60.0472 30.5476 59.3213C31.1843 58.5954 31.6145 57.7119 31.7933 56.763C37.6893 55.2616 43.1935 52.5096 47.9322 48.6936C49.0581 49.3515 50.3876 49.5696 51.6647 49.3056C52.9418 49.0417 54.076 48.3145 54.8488 47.2641C58.1017 48.11 61.4479 48.5438 64.8088 48.5552H66.0308C63.8065 53.3383 60.2612 57.3858 55.8128 60.2207C51.3644 63.0556 46.1982 64.5597 40.9233 64.5558V64.5097ZM55.9325 43.9902C55.9302 43.0239 55.6674 42.0761 55.1716 41.2466C59.0086 36.2346 61.6787 30.4296 62.9875 24.2547C64.1402 24.7926 65.2776 25.3921 66.3997 26.053C68.9354 32.0449 69.2783 38.7389 67.368 44.9586C63.5402 45.2545 59.6897 44.9512 55.9555 44.0594L55.9325 43.9902Z" fill="white"/>
</g>
<defs>
<clipPath id="clip0_3270_11238">
<rect width="83" height="83" fill="white"/>
</clipPath>
</defs>
</svg>
