<svg width="83" height="83" viewBox="0 0 83 83" fill="none" xmlns="http://www.w3.org/2000/svg">
<path d="M41.5 75.3347C42.4041 75.3347 43.2371 75.2309 44.1753 75.1613L46.191 78.9822C46.5719 79.747 47.3367 80.1635 48.2734 80.0242C49.1419 79.8508 49.7674 79.2253 49.8711 78.2871L50.4966 74.0838C52.1996 73.6332 53.9011 72.9722 55.5685 72.2429L58.6958 75.0575C59.3554 75.683 60.1883 75.8208 61.0569 75.3347C61.8217 74.9182 62.1344 74.0838 61.961 73.1811L61.0924 69.0134C62.5648 67.9857 63.9476 66.8354 65.2261 65.5748L69.1168 67.2051C69.9853 67.5534 70.7842 67.38 71.4437 66.5812C72.0351 65.9557 72.1033 65.0531 71.6171 64.2883L69.3598 60.6763C70.4018 59.2164 71.2362 57.6527 72.0351 55.9853L76.274 56.1943C77.1752 56.2284 77.94 55.7422 78.2527 54.8752C78.5299 54.0052 78.2527 53.1722 77.5235 52.6164L74.2227 49.9767C74.6748 48.3093 75.0231 46.5026 75.1609 44.6262L79.1909 43.3767C80.0594 43.064 80.6137 42.403 80.6137 41.4648C80.6137 40.5621 80.0594 39.9026 79.1909 39.5899L75.1595 38.3048C75.0216 36.4284 74.6748 34.6914 74.2227 32.9899L77.522 30.3146C78.2527 29.7944 78.5299 28.9955 78.2527 28.127C77.94 27.2584 77.1752 26.7708 76.2726 26.8064L72.0336 26.9798C71.2362 25.3124 70.4033 23.7487 69.3598 22.2903L71.6186 18.6783C72.1033 17.9476 72.0336 17.045 71.4437 16.4195C70.7842 15.6206 69.9853 15.4117 69.1168 15.7941L65.2261 17.3577C63.9284 16.1284 62.5466 14.9908 61.091 13.9532L61.961 9.81954C62.1344 8.88134 61.8217 8.04838 61.0569 7.63041C60.1883 7.17984 59.3554 7.2495 58.6958 7.94315L55.5685 10.6881C53.9203 9.97265 52.2259 9.36905 50.4966 8.88134L49.8711 4.67799C49.7674 3.77388 49.1419 3.11581 48.2734 2.97649C47.3352 2.83717 46.5719 3.21956 46.1895 3.98434L44.1738 7.80531C43.2371 7.73565 42.4026 7.66599 41.5 7.66599C40.5618 7.66599 39.7288 7.73565 38.7551 7.80531L36.7764 3.98434C36.394 3.21956 35.6292 2.83717 34.6569 2.97649C33.7884 3.11581 33.197 3.77536 33.0592 4.67799L32.4678 8.84725C30.739 9.35019 29.0448 9.9651 27.3959 10.6881L24.2701 7.94315C23.575 7.2495 22.742 7.17984 21.9076 7.6319C21.1442 8.0469 20.8315 8.88134 21.0034 9.81954L21.8735 13.9547C20.3998 14.9821 19.006 16.1197 17.7042 17.3577L13.8491 15.7941C12.9806 15.4117 12.1462 15.6206 11.4866 16.4195C11.2169 16.7192 11.0536 17.0997 11.0223 17.5017C10.9909 17.9037 11.0932 18.3048 11.3132 18.6427L13.6061 22.2918C12.5641 23.7502 11.7297 25.3153 10.9308 26.9813L6.65778 26.8079C5.75368 26.7738 4.99037 27.2599 4.71321 28.127C4.43457 28.997 4.67764 29.7959 5.40686 30.3161L8.74168 32.9914C8.2911 34.6929 7.90871 36.4299 7.80496 38.3063L3.77353 39.5913C2.87239 39.8685 2.38477 40.5295 2.38477 41.4677C2.38477 42.4044 2.87239 43.0655 3.77502 43.3782L7.80496 44.6632C7.90871 46.5041 8.29111 48.3093 8.74316 49.9782L5.40834 52.6164C4.67764 53.1722 4.43457 54.0067 4.71173 54.8737C4.99037 55.7422 5.75516 56.2284 6.65778 56.1943L10.9308 55.9868C11.7312 57.6527 12.5641 59.2179 13.5705 60.6748L11.3473 64.2883C10.8271 65.0531 10.8967 65.9557 11.4866 66.5812C12.1462 67.38 12.9806 67.5534 13.8491 67.2066L17.7042 65.5733C18.9907 66.8583 20.415 68.004 21.8735 69.0119L21.0049 73.1811C20.8315 74.0852 21.1442 74.9182 21.909 75.3347C22.7761 75.8208 23.6105 75.6815 24.2701 75.0575L27.3618 72.2429C29.0293 72.9722 30.7308 73.6332 32.4678 74.0838L33.0592 78.2871C33.197 79.2253 33.7884 79.8508 34.6569 80.0242C35.6292 80.1635 36.394 79.747 36.7764 78.9822L38.7551 75.1613C39.6933 75.2309 40.5633 75.3347 41.5 75.3347ZM50.2194 39.2771C48.5861 34.9004 45.3906 32.5037 41.3963 32.5037C40.8049 32.5037 40.1112 32.5734 38.9996 32.815L29.0293 15.7941C32.7465 13.9532 36.9839 12.9454 41.5 12.9454C56.646 12.9454 68.5254 24.4438 69.6029 39.2771H50.2194ZM13.2933 41.5003C13.2933 31.8427 17.8435 23.3322 25.0349 18.1922L35.0734 35.3168C33.197 37.2629 32.33 39.3809 32.33 41.6397C32.33 43.8273 33.1629 45.843 35.0734 47.8573L24.7918 64.6707C17.7739 59.4935 13.2933 51.0883 13.2933 41.5003ZM37.227 41.6041C37.227 39.243 39.2427 37.4007 41.4659 37.4007C43.827 37.4007 45.773 39.243 45.773 41.6041C45.773 43.9311 43.827 45.843 41.4659 45.843C39.2427 45.843 37.227 43.9311 37.227 41.6041ZM41.5 70.0553C36.8802 70.0553 32.5731 68.9778 28.7862 67.1029L38.9981 50.3932C40.0757 50.6718 40.8064 50.74 41.3963 50.74C45.4247 50.74 48.6217 48.2737 50.2194 43.7932H69.6014C68.4898 58.5554 56.6104 70.0553 41.5 70.0553Z" fill="white"/>
</svg>
