<svg width="83" height="83" viewBox="0 0 83 83" fill="none" xmlns="http://www.w3.org/2000/svg">
<path d="M54.5729 34.6867C54.8277 34.4492 55.0321 34.1629 55.1739 33.8447C55.3157 33.5265 55.3919 33.1831 55.398 32.8348C55.4042 32.4866 55.3401 32.1406 55.2097 31.8177C55.0792 31.4947 54.885 31.2013 54.6387 30.955C54.3924 30.7087 54.0991 30.5145 53.7761 30.3841C53.4531 30.2536 53.1072 30.1896 52.7589 30.1957C52.4107 30.2019 52.0672 30.2781 51.749 30.4199C51.4309 30.5616 51.1445 30.766 50.9071 31.0208L38.9067 43.0213L33.8229 37.9375C33.3312 37.4794 32.6809 37.2299 32.0089 37.2418C31.337 37.2536 30.6959 37.5259 30.2206 38.0011C29.7454 38.4763 29.4732 39.1174 29.4613 39.7894C29.4495 40.4613 29.6989 41.1117 30.1571 41.6033L38.9067 50.3529L54.5729 34.6867Z" fill="white"/>
<path d="M45.0966 5.39494C42.7579 4.60415 40.2239 4.60537 37.886 5.39839L14.4523 13.3353C12.7295 13.909 11.2122 14.9744 10.0876 16.4002C8.96304 17.8259 8.28028 19.5495 8.12354 21.3586C6.90275 36.6099 8.95354 48.5964 14.48 57.9927C20.0237 67.4167 28.8632 73.8941 40.5385 78.4972C41.1497 78.738 41.8294 78.738 42.4406 78.4972C54.1263 73.8941 62.9693 67.4167 68.5164 57.9927C74.0498 48.5964 76.0971 36.6064 74.8798 21.3621C74.7228 19.5526 74.0395 17.8286 72.9142 16.4029C71.789 14.9771 70.271 13.9119 68.5475 13.3387L45.0966 5.39494ZM39.5494 10.3127C40.8078 9.88682 42.1713 9.88682 43.4297 10.3127L66.8841 18.2496C68.4818 18.7891 69.5816 20.1897 69.7095 21.7736C70.875 36.3885 68.8519 47.1958 64.0448 55.3609C59.3968 63.2632 51.9545 69.0075 41.4895 73.2889C31.035 69.0075 23.5996 63.2632 18.9516 55.3609C14.1445 47.1993 12.1248 36.3885 13.2903 21.7736C13.3657 20.9741 13.6734 20.2141 14.1755 19.5873C14.6775 18.9605 15.352 18.4943 16.1158 18.2461L39.5494 10.3127Z" fill="white"/>
</svg>
