<svg width="83" height="83" viewBox="0 0 83 83" fill="none" xmlns="http://www.w3.org/2000/svg">
<path d="M58.7917 69.1663C62.6116 69.1663 65.7083 66.0696 65.7083 62.2497C65.7083 58.4297 62.6116 55.333 58.7917 55.333C54.9717 55.333 51.875 58.4297 51.875 62.2497C51.875 66.0696 54.9717 69.1663 58.7917 69.1663Z" stroke="white" stroke-width="4"/>
<path d="M24.2087 69.1663C28.0286 69.1663 31.1253 66.0696 31.1253 62.2497C31.1253 58.4297 28.0286 55.333 24.2087 55.333C20.3887 55.333 17.292 58.4297 17.292 62.2497C17.292 66.0696 20.3887 69.1663 24.2087 69.1663Z" stroke="white" stroke-width="4"/>
<path d="M17.292 62.1528C13.4982 61.9661 11.1362 61.4024 9.44849 59.7182C7.76083 58.034 7.20058 55.6685 7.01383 51.8747M31.1253 62.2497H51.8753M65.7087 62.1528C69.5024 61.9661 71.8645 61.4024 73.5522 59.7182C76.0837 57.1832 76.0837 53.1093 76.0837 44.958V38.0413H59.8295C57.253 38.0413 55.9665 38.0413 54.9256 37.7024C53.8876 37.3651 52.9441 36.7869 52.1723 36.0152C51.4006 35.2434 50.8224 34.2999 50.4851 33.2619C50.1462 32.221 50.1462 30.9345 50.1462 28.358C50.1462 24.495 50.1462 22.5653 49.6378 21.0021C49.1318 19.4451 48.2646 18.0299 47.1069 16.8723C45.9492 15.7146 44.5341 14.8473 42.977 14.3414C41.4139 13.833 39.4841 13.833 35.6212 13.833H6.91699M6.91699 27.6663H27.667M6.91699 38.0413H20.7503" stroke="white" stroke-width="4" stroke-linecap="round" stroke-linejoin="round"/>
<path d="M50.1465 20.75H56.4441C61.4794 20.75 63.9937 20.75 66.041 21.9743C68.0918 23.195 69.2849 25.4118 71.6712 29.8454L76.084 38.0417" stroke="white" stroke-width="4" stroke-linecap="round" stroke-linejoin="round"/>
</svg>
