<svg width="83" height="83" viewBox="0 0 83 83" fill="none" xmlns="http://www.w3.org/2000/svg">
<path d="M67.4375 15.5625C64.6113 18.2659 61.2503 20.3475 57.5709 21.6734C53.6906 22.3581 42.9525 17.3781 37.6613 22.4619C36.7794 23.3437 35.69 24.2256 34.5487 25.1075C32.0588 24.0181 28.22 22.3581 25.4188 20.75C22.6175 19.1419 15.5625 15.5625 15.5625 15.5625L0 33.7188C0 33.7188 3.83875 38.9062 6.225 42.33C7.78125 44.6125 9.70062 48.0881 10.9456 50.4225L9.18188 52.4975C8.76251 53.3373 8.61222 54.2859 8.75146 55.2142C8.8907 56.1424 9.31271 57.0052 9.96 57.685C10.7092 58.2499 11.6224 58.5545 12.5607 58.5527C13.499 58.5508 14.4109 58.2425 15.1579 57.6746C14.8805 57.9994 14.6706 58.3761 14.5404 58.7828C14.4102 59.1895 14.3623 59.618 14.3995 60.0435C14.4367 60.4689 14.5582 60.8826 14.757 61.2606C14.9558 61.6385 15.2278 61.9731 15.5573 62.2448C16.3505 62.7043 17.2513 62.9455 18.168 62.9436C19.0847 62.9418 19.9846 62.6971 20.7759 62.2344C20.1832 62.9732 19.8589 63.8913 19.8561 64.8384C19.8533 65.7856 20.1721 66.7056 20.7604 67.4479C21.5249 67.7134 22.3406 67.7982 23.1434 67.6956C23.9463 67.593 24.7144 67.3058 25.3876 66.8565C25.0506 67.6504 24.9629 68.5281 25.1362 69.373C25.3094 70.2179 25.7354 70.9902 26.3577 71.5875C27.2357 71.974 28.197 72.1328 29.1526 72.0494C30.1083 71.966 31.0275 71.643 31.8253 71.1103L34.5021 68.6877C36.9506 71.1258 40.3276 72.6354 44.0574 72.6354L44.3739 72.6302C45.6032 72.5258 46.7809 72.0888 47.7807 71.3659C48.7805 70.643 49.5646 69.6616 50.049 68.5269C50.8064 68.8174 51.6675 69.0145 52.5805 69.0145C53.8047 69.0145 54.9408 68.6618 55.9005 68.0548C58.9352 66.0473 58.2089 64.491 58.2089 64.491C59.288 64.9555 60.4867 65.0656 61.6323 64.8056C62.778 64.5455 63.8116 63.9286 64.5844 63.0437C65.3874 62.2222 65.8938 61.1565 66.0234 60.0151C66.1531 58.8736 65.8986 57.7215 65.3003 56.7409C65.3335 56.7593 65.3712 56.7683 65.4092 56.7668C67.5931 56.7668 69.4918 55.5633 70.4826 53.7892C70.972 52.5286 71.1378 51.1654 70.9647 49.8243C70.7916 48.4831 70.2852 47.2067 69.4918 46.1117L69.5073 46.1376C73.7611 45.3076 73.6054 43.1807 75.6804 40.0683C77.6427 37.5259 80.0878 35.3963 82.8755 33.8017L67.4375 15.5625ZM67.1781 52.1863C64.8956 54.4688 63.1319 53.4831 59.2412 50.5262C55.3506 47.5694 47.6213 42.0188 47.6213 42.0188C47.9377 43.6009 48.6691 44.9756 49.7014 46.0702C51.3563 47.9325 56.2844 52.1862 58.6188 54.365C60.0713 55.7137 63.8063 58.4113 61.6275 60.4862C59.4487 62.5612 57.7369 60.4863 54.1575 57.5813C50.5781 54.6763 42.5894 47.5175 42.5894 47.5175C42.5464 48.2036 42.6489 48.8911 42.8903 49.5348C43.1317 50.1785 43.5064 50.7638 43.99 51.2525C44.8719 52.29 49.8 57.0625 51.875 59.2412C53.95 61.42 55.7656 62.7169 54.0019 64.4287C52.2381 66.1406 48.6587 63.4431 46.6875 61.42C43.6269 58.4631 37.5575 52.9644 37.5575 52.9644L37.5523 53.2393C37.5523 54.7126 38.0607 56.0613 38.9166 57.1299C40.4106 59.0908 43.3156 61.6327 45.0794 63.6039C46.8431 65.5752 47.8806 67.2352 45.0794 68.7914C42.2781 70.3477 38.1281 66.5089 36.3125 64.6414V64.6311C36.3181 64.1178 36.1333 63.6206 35.7938 63.2356C35.172 62.6628 34.4065 62.2695 33.5787 62.0978C32.751 61.926 31.8922 61.9822 31.0939 62.2604C31.4215 61.966 31.684 61.6065 31.8647 61.2048C32.0454 60.8031 32.1403 60.3681 32.1432 59.9277C32.1461 59.4873 32.0571 59.0511 31.8817 58.647C31.7064 58.243 31.4487 57.88 31.125 57.5813C30.4441 57.0653 29.6129 56.7865 28.7586 56.7875C27.9043 56.7884 27.0738 57.069 26.394 57.5864C26.7377 57.2581 27.0031 56.8565 27.1703 56.4116C27.3376 55.9666 27.4024 55.4897 27.3601 55.0162C27.3177 54.5427 27.1692 54.0849 26.9256 53.6767C26.6821 53.2685 26.3496 52.9204 25.9531 52.6583C25.0244 52.0748 23.9347 51.8006 22.8405 51.8752C21.7463 51.9498 20.7038 52.3692 19.8629 53.0733C20.425 52.3921 20.702 51.5202 20.6363 50.6395C20.5706 49.7589 20.1671 48.9377 19.5102 48.3475C18.6921 47.5906 17.652 47.1173 16.5438 46.9977C15.4357 46.8781 14.3186 47.1186 13.3578 47.6835L9.90812 41.8579C7.52187 38.0711 4.72062 34.1286 4.72062 34.1286L16.5481 19.7592C16.5481 19.7592 20.75 22.3529 24.2256 24.3242C25.9375 25.3098 28.8944 26.6067 31.125 27.6442C27.5975 30.2898 24.6406 32.8317 25.5225 34.5954C27.0929 35.7264 28.9715 36.3503 30.9064 36.3837C32.8414 36.4171 34.7403 35.8583 36.3488 34.7822C38.4112 33.4074 40.837 32.6794 43.3156 32.6916C45.1157 32.6916 46.8276 33.0651 48.3786 33.7447C51.2525 35.6848 56.5438 40.4573 61.3681 43.4661C67.4375 47.8754 68.6306 50.7286 67.1781 52.1811V52.1863Z" fill="white"/>
</svg>
